<?xml version="1.0" encoding="UTF-8"?>
<svg id="Calque_1"
    xmlns="http://www.w3.org/2000/svg" viewBox="0 0 1061.2 237.1">
    <path d="M118.3,235c-1.6,0-3.2,0-4.8,0-.8,0-2.4.5-2.2-.7,2.1-.3,4.9.7,6.7-.7l.3,1.4Z"/>
    <path d="M827.2,227.5c.1,1.2-1.5.7-2.2.7-1.2,0-2.4,0-3.5,0-.1-1.2,1.5-.7,2.2-.7,1.2,0,2.4,0,3.5,0Z"/>
    <path d="M896,233.7v.7h-3.9v-1.4c1.3.1,2.3,1,3.9.7Z"/>
    <path d="M906.9,235v.7h-3.9v-1.4c1.3.1,2.3,1,3.9.7Z"/>
    <path d="M891.5,233v1.4c-1.2-.9-2.4-.7-3.9-.7v-.7h3.9Z"/>
    <path d="M836.2,228.2v.7h-3.9l1-1.4c.7,1.1,1.8.6,2.9.7Z"/>
    <path d="M94.5,237.1h-2.6v-1.4c1.2-.2,2.2,0,2.6,1.4Z"/>
    <path d="M723.7,223.4v1.4c-.9-.5-1.5-.9-2.6-.7v-.7h2.6Z"/>
    <path d="M770,224.7v1.4c-.9-.5-1.5-.9-2.6-.7v-.7h2.6Z"/>
    <rect x="852.9" y="229.5" width="3.2" height=".7"/>
    <rect x="899.9" y="234.3" width="2.6" height=".7"/>
    <rect x="160" y="231.6" width="2.6" height=".7"/>
    <rect x="811.8" y="226.8" width="2.6" height=".7"/>
    <rect x="292.4" y="225.4" width="2.6" height=".7"/>
    <rect x="315.6" y="224.7" width="2.6" height=".7"/>
    <rect x="354.2" y="223.4" width="2.6" height=".7"/>
    <rect x="399.1" y="222" width="2.6" height=".7"/>
    <rect x="448.6" y="221.3" width="2.6" height=".7"/>
    <rect x="420.4" y="221.3" width="1.3" height="1.4"/>
    <polygon points="522.6 1.4 521.3 1.4 521.3 0 522.6 1.4"/>
    <polygon points="439.6 221.3 439.6 222.7 439.3 222.7 438.4 221.3 439.6 221.3"/>
    <rect x="486.6" y="221.3" width="1.9" height=".7"/>
    <polygon points="571.4 221.3 571.4 222.7 571.1 222.7 570.1 221.3 571.4 221.3"/>
    <polygon points="576.6 221.3 576.6 222.7 576.2 222.7 575.3 221.3 576.6 221.3"/>
    <polygon points="603.5 222.7 602.3 222.7 602.3 222.3 603.5 221.3 603.5 222.7"/>
    <polygon points="650.5 222 650.5 223.4 650.1 223.4 649.2 222 650.5 222"/>
    <polygon points="367 222.7 367 224 366.7 224 365.7 222.7 367 222.7"/>
    <polygon points="341.9 224.7 340.7 224.7 340.7 224.4 341.9 223.4 341.9 224.7"/>
    <polygon points="345.2 224.7 343.9 224.7 343.9 224.4 345.2 223.4 345.2 224.7"/>
    <polygon points="732.1 224.7 730.8 224.7 730.8 224.4 732.1 223.4 732.1 224.7"/>
    <polygon points="306.6 224.7 306.6 226.1 306.3 226.1 305.3 224.7 306.6 224.7"/>
    <polygon points="309.8 224.7 309.8 226.1 309.5 226.1 308.5 224.7 309.8 224.7"/>
    <rect x="764.2" y="224.7" width="1.9" height=".7"/>
    <polygon points="773.2 226.1 772 226.1 772 225.8 773.2 224.7 773.2 226.1"/>
    <polygon points="286.7 226.8 285.4 226.8 285.4 226.4 286.7 225.4 286.7 226.8"/>
    <polygon points="288.6 225.4 287.3 226.8 287.3 225.4 288.6 225.4"/>
    <polygon points="804.7 226.1 804.7 227.5 804.4 227.5 803.4 226.1 804.7 226.1"/>
    <polygon points="807.9 227.5 806.7 227.5 806.7 227.1 807.9 226.1 807.9 227.5"/>
    <polygon points="820.8 228.2 819.5 228.2 819.5 227.8 820.8 226.8 820.8 228.2"/>
    <polygon points="241.7 227.5 241.7 228.8 241.3 228.8 240.4 227.5 241.7 227.5"/>
    <polygon points="228.2 228.2 228.2 229.5 227.9 229.5 226.9 228.2 228.2 228.2"/>
    <rect x="844.6" y="228.8" width="1.9" height=".7"/>
    <rect x="163.3" y="231.6" width="1.9" height=".7"/>
    <rect x="98.3" y="235.7" width="1.9" height=".7"/>
    <rect x="503.9" width=".6" height="1.4"/>
    <rect x="563.1" y=".7" width=".6" height="1.4"/>
    <rect x="615.1" y="2.1" width=".6" height="1.4"/>
    <rect x="695.5" y="5.5" width="1.3" height=".7"/>
    <rect x="700.6" y="5.5" width="1.3" height=".7"/>
    <rect x="753.3" y="8.2" width="1.3" height=".7"/>
    <rect x="282.8" y="8.9" width="1.3" height=".7"/>
    <rect x="775.8" y="8.9" width=".6" height="1.4"/>
    <rect x="861.9" y="13.1" width=".6" height="1.4"/>
    <rect x="419.1" y="221.3" width=".6" height="1.4"/>
    <rect x="466.6" y="221.3" width="1.3" height=".7"/>
    <rect x="475" y="221.3" width="1.3" height=".7"/>
    <rect x="478.2" y="221.3" width="1.3" height=".7"/>
    <rect x="484.6" y="221.3" width="1.3" height=".7"/>
    <rect x="499.4" y="221.3" width="1.3" height=".7"/>
    <rect x="516.1" y="221.3" width="1.3" height=".7"/>
    <rect x="521.3" y="221.3" width="1.3" height=".7"/>
    <rect x="526.4" y="221.3" width="1.3" height=".7"/>
    <rect x="545.1" y="221.3" width="1.3" height=".7"/>
    <rect x="551.5" y="221.3" width="1.3" height=".7"/>
    <rect x="561.8" y="221.3" width="1.3" height=".7"/>
    <rect x="574" y="221.3" width=".6" height="1.4"/>
    <rect x="584.3" y="221.3" width=".6" height="1.4"/>
    <rect x="387.6" y="222" width=".6" height="1.4"/>
    <rect x="397.2" y="222" width="1.3" height=".7"/>
    <rect x="403.6" y="222" width="1.3" height=".7"/>
    <rect x="607.4" y="222" width="1.3" height=".7"/>
    <rect x="610.6" y="222" width="1.3" height=".7"/>
    <rect x="615.8" y="222" width="1.3" height=".7"/>
    <rect x="619" y="222" width="1.3" height=".7"/>
    <rect x="362.5" y="222.7" width=".6" height="1.4"/>
    <rect x="368.9" y="222.7" width="1.3" height=".7"/>
    <rect x="370.9" y="222.7" width="1.3" height=".7"/>
    <rect x="377.3" y="222.7" width="1.3" height=".7"/>
    <rect x="380.5" y="222.7" width="1.3" height=".7"/>
    <rect x="382.4" y="222.7" width="1.3" height=".7"/>
    <rect x="671" y="222.7" width="1.3" height=".7"/>
    <rect x="674.3" y="222.7" width="1.3" height=".7"/>
    <rect x="696.1" y="222.7" width="1.3" height=".7"/>
    <rect x="701.2" y="222.7" width=".6" height="1.4"/>
    <rect x="703.2" y="222.7" width=".6" height="1.4"/>
    <rect x="342.6" y="223.4" width=".6" height="1.4"/>
    <rect x="349" y="223.4" width="1.3" height=".7"/>
    <rect x="352.2" y="223.4" width="1.3" height=".7"/>
    <rect x="707.7" y="223.4" width="1.3" height=".7"/>
    <rect x="726.3" y="223.4" width=".6" height="1.4"/>
    <rect x="732.7" y="223.4" width=".6" height="1.4"/>
    <rect x="325.9" y="224" width=".6" height="1.4"/>
    <rect x="332.3" y="224" width="1.3" height=".7"/>
    <rect x="739.2" y="224" width="1.3" height=".7"/>
    <rect x="745.6" y="224" width="1.3" height=".7"/>
    <rect x="752.7" y="224" width=".6" height="1.4"/>
    <rect x="754.6" y="224" width=".6" height="1.4"/>
    <rect x="313.7" y="224.7" width="1.3" height=".7"/>
    <rect x="318.8" y="224.7" width="1.3" height=".7"/>
    <rect x="322" y="224.7" width="1.3" height=".7"/>
    <rect x="289.2" y="225.4" width=".6" height="1.4"/>
    <rect x="789.3" y="225.4" width=".6" height="1.4"/>
    <rect x="273.8" y="226.1" width="1.3" height=".7"/>
    <rect x="279" y="226.1" width="1.3" height=".7"/>
    <rect x="282.2" y="226.1" width="1.3" height=".7"/>
    <rect x="805.4" y="226.1" width=".6" height="1.4"/>
    <rect x="263.5" y="226.8" width="1.3" height=".7"/>
    <rect x="809.9" y="226.8" width="1.3" height=".7"/>
    <rect x="235.9" y="227.5" width=".6" height="1.4"/>
    <rect x="239.1" y="227.5" width=".6" height="1.4"/>
    <rect x="245.5" y="227.5" width="1.3" height=".7"/>
    <rect x="248.7" y="227.5" width="1.3" height=".7"/>
    <rect x="225.6" y="228.2" width=".6" height="1.4"/>
    <rect x="218.5" y="228.8" width="1.3" height=".7"/>
    <rect x="861.9" y="230.2" width="1.3" height=".7"/>
    <rect x="171.6" y="230.9" width=".6" height="1.4"/>
    <rect x="172.9" y="230.9" width="1.3" height=".7"/>
    <rect x="872.2" y="230.9" width=".6" height="1.4"/>
    <path d="M456,.7c.4,0,.4.7,0,.7s-.4-.7,0-.7Z"/>
    <path d="M464.4.7c.4,0,.4.7,0,.7s-.4-.7,0-.7Z"/>
    <path d="M466.3.7c.4,0,.4.7,0,.7s-.4-.7,0-.7Z"/>
    <path d="M467.6.7c.4,0,.4.7,0,.7s-.4-.7,0-.7Z"/>
    <path d="M476.6.7c.4,0,.4.7,0,.7s-.4-.7,0-.7Z"/>
    <path d="M483.7.7c.4,0,.4.7,0,.7s-.4-.7,0-.7Z"/>
    <path d="M488.8.7c.4,0,.4.7,0,.7s-.4-.7,0-.7Z"/>
    <path d="M513.2.7c.4,0,.4.7,0,.7s-.4-.7,0-.7Z"/>
    <path d="M520.3.7c.4,0,.4.7,0,.7s-.4-.7,0-.7Z"/>
    <path d="M525.5.7c.4,0,.4.7,0,.7s-.4-.7,0-.7Z"/>
    <path d="M527.4.7c.4,0,.4.7,0,.7s-.4-.7,0-.7Z"/>
    <path d="M529.3.7c.4,0,.4.7,0,.7s-.4-.7,0-.7Z"/>
    <path d="M530.6.7c.4,0,.4.7,0,.7s-.4-.7,0-.7Z"/>
    <path d="M532.5.7c.4,0,.4.7,0,.7s-.4-.7,0-.7Z"/>
    <path d="M539.6.7c.4,0,.4.7,0,.7s-.4-.7,0-.7Z"/>
    <path d="M553.1.7c.4,0,.4.7,0,.7s-.4-.7,0-.7Z"/>
    <path d="M420.7,1.4c.4,0,.4.7,0,.7s-.4-.7,0-.7Z"/>
    <path d="M422.6,1.4c.4,0,.4.7,0,.7s-.4-.7,0-.7Z"/>
    <path d="M425.8,1.4c.4,0,.4.7,0,.7s-.4-.7,0-.7Z"/>
    <path d="M567.2,1.4c.4,0,.4.7,0,.7s-.4-.7,0-.7Z"/>
    <path d="M587.8,1.4c.4,0,.4.7,0,.7s-.4-.7,0-.7Z"/>
    <path d="M392.4,2.1c.4,0,.4.7,0,.7s-.4-.7,0-.7Z"/>
    <path d="M404.6,2.1c.4,0,.4.7,0,.7s-.4-.7,0-.7Z"/>
    <path d="M605.2,2.1c.4,0,.4.7,0,.7s-.4-.7,0-.7Z"/>
    <path d="M382.1,2.7c.4,0,.4.7,0,.7s-.4-.7,0-.7Z"/>
    <path d="M385.3,2.7c.4,0,.4.7,0,.7s-.4-.7,0-.7Z"/>
    <path d="M617.4,2.7c.4,0,.4.7,0,.7s-.4-.7,0-.7Z"/>
    <path d="M366,3.4c.4,0,.4.7,0,.7s-.4-.7,0-.7Z"/>
    <path d="M639.9,3.4c.4,0,.4.7,0,.7s-.4-.7,0-.7Z"/>
    <path d="M353.8,4.1c.4,0,.4.7,0,.7s-.4-.7,0-.7Z"/>
    <path d="M656.6,4.1c.4,0,.4.7,0,.7s-.4-.7,0-.7Z"/>
    <path d="M658.5,4.1c.4,0,.4.7,0,.7s-.4-.7,0-.7Z"/>
    <path d="M673.9,4.8c.4,0,.4.7,0,.7s-.4-.7,0-.7Z"/>
    <path d="M684.2,4.8c.4,0,.4.7,0,.7s-.4-.7,0-.7Z"/>
    <path d="M330.7,5.5c.4,0,.4.7,0,.7s-.4-.7,0-.7Z"/>
    <path d="M697.7,5.5c.4,0,.4.7,0,.7s-.4-.7,0-.7Z"/>
    <path d="M702.9,5.5c.4,0,.4.7,0,.7s-.4-.7,0-.7Z"/>
    <path d="M321.7,6.2c.4,0,.4.7,0,.7s-.4-.7,0-.7Z"/>
    <path d="M755.6,8.2c.4,0,.4.7,0,.7s-.4-.7,0-.7Z"/>
    <path d="M285.1,8.9c.4,0,.4.7,0,.7s-.4-.7,0-.7Z"/>
    <path d="M276.7,9.6c.4,0,.4.7,0,.7s-.4-.7,0-.7Z"/>
    <path d="M784.5,9.6c.4,0,.4.7,0,.7s-.4-.7,0-.7Z"/>
    <path d="M787.7,9.6c.4,0,.4.7,0,.7s-.4-.7,0-.7Z"/>
    <path d="M267.7,10.3c.4,0,.4.7,0,.7s-.4-.7,0-.7Z"/>
    <path d="M259.3,11c.4,0,.4.7,0,.7s-.4-.7,0-.7Z"/>
    <path d="M823,11.7c.4,0,.4.7,0,.7s-.4-.7,0-.7Z"/>
    <path d="M834.6,12.4c.4,0,.4.7,0,.7s-.4-.7,0-.7Z"/>
    <path d="M843,12.4c.4,0,.4.7,0,.7s-.4-.7,0-.7Z"/>
    <path d="M857.8,13.1c.4,0,.4.7,0,.7s-.4-.7,0-.7Z"/>
    <path d="M875.1,13.7c.4,0,.4.7,0,.7s-.4-.7,0-.7Z"/>
    <path d="M429,221.3c.4,0,.4.7,0,.7s-.4-.7,0-.7Z"/>
    <path d="M435.5,221.3c.4,0,.4.7,0,.7s-.4-.7,0-.7Z"/>
    <path d="M437.4,221.3c.4,0,.4.7,0,.7s-.4-.7,0-.7Z"/>
    <path d="M440.6,221.3c.4,0,.4.7,0,.7s-.4-.7,0-.7Z"/>
    <path d="M452.2,221.3c.4,0,.4.7,0,.7s-.4-.7,0-.7Z"/>
    <path d="M455.4,221.3c.4,0,.4.7,0,.7s-.4-.7,0-.7Z"/>
    <path d="M460.5,221.3c.4,0,.4.7,0,.7s-.4-.7,0-.7Z"/>
    <path d="M462.5,221.3c.4,0,.4.7,0,.7s-.4-.7,0-.7Z"/>
    <path d="M463.7,221.3c.4,0,.4.7,0,.7s-.4-.7,0-.7Z"/>
    <path d="M481.7,221.3c.4,0,.4.7,0,.7s-.4-.7,0-.7Z"/>
    <path d="M493.3,221.3c.4,0,.4.7,0,.7s-.4-.7,0-.7Z"/>
    <path d="M495.2,221.3c.4,0,.4.7,0,.7s-.4-.7,0-.7Z"/>
    <path d="M496.5,221.3c.4,0,.4.7,0,.7s-.4-.7,0-.7Z"/>
    <path d="M501.7,221.3c.4,0,.4.7,0,.7s-.4-.7,0-.7Z"/>
    <path d="M503.6,221.3c.4,0,.4.7,0,.7s-.4-.7,0-.7Z"/>
    <path d="M504.9,221.3c.4,0,.4.7,0,.7s-.4-.7,0-.7Z"/>
    <path d="M506.8,221.3c.4,0,.4.7,0,.7s-.4-.7,0-.7Z"/>
    <path d="M518.4,221.3c.4,0,.4.7,0,.7s-.4-.7,0-.7Z"/>
    <path d="M523.5,221.3c.4,0,.4.7,0,.7s-.4-.7,0-.7Z"/>
    <path d="M525.5,221.3c.4,0,.4.7,0,.7s-.4-.7,0-.7Z"/>
    <path d="M528.7,221.3c.4,0,.4.7,0,.7s-.4-.7,0-.7Z"/>
    <path d="M540.2,221.3c.4,0,.4.7,0,.7s-.4-.7,0-.7Z"/>
    <path d="M542.2,221.3c.4,0,.4.7,0,.7s-.4-.7,0-.7Z"/>
    <path d="M543.4,221.3c.4,0,.4.7,0,.7s-.4-.7,0-.7Z"/>
    <path d="M547.3,221.3c.4,0,.4.7,0,.7s-.4-.7,0-.7Z"/>
    <path d="M548.6,221.3c.4,0,.4.7,0,.7s-.4-.7,0-.7Z"/>
    <path d="M550.5,221.3c.4,0,.4.7,0,.7s-.4-.7,0-.7Z"/>
    <path d="M553.7,221.3c.4,0,.4.7,0,.7s-.4-.7,0-.7Z"/>
    <path d="M555.7,221.3c.4,0,.4.7,0,.7s-.4-.7,0-.7Z"/>
    <path d="M558.9,221.3c.4,0,.4.7,0,.7s-.4-.7,0-.7Z"/>
    <path d="M560.8,221.3c.4,0,.4.7,0,.7s-.4-.7,0-.7Z"/>
    <path d="M564,221.3c.4,0,.4.7,0,.7s-.4-.7,0-.7Z"/>
    <path d="M569.2,221.3c.4,0,.4.7,0,.7s-.4-.7,0-.7Z"/>
    <path d="M572.4,221.3c.4,0,.4.7,0,.7s-.4-.7,0-.7Z"/>
    <path d="M580.7,221.3c.4,0,.4.7,0,.7s-.4-.7,0-.7Z"/>
    <path d="M396.3,222c.4,0,.4.7,0,.7s-.4-.7,0-.7Z"/>
    <path d="M402.7,222c.4,0,.4.7,0,.7s-.4-.7,0-.7Z"/>
    <path d="M416.2,222c.4,0,.4.7,0,.7s-.4-.7,0-.7Z"/>
    <path d="M604.5,222c.4,0,.4.7,0,.7s-.4-.7,0-.7Z"/>
    <path d="M614.8,222c.4,0,.4.7,0,.7s-.4-.7,0-.7Z"/>
    <path d="M618,222c.4,0,.4.7,0,.7s-.4-.7,0-.7Z"/>
    <path d="M623.2,222c.4,0,.4.7,0,.7s-.4-.7,0-.7Z"/>
    <path d="M624.4,222c.4,0,.4.7,0,.7s-.4-.7,0-.7Z"/>
    <path d="M631.5,222c.4,0,.4.7,0,.7s-.4-.7,0-.7Z"/>
    <path d="M634.7,222c.4,0,.4.7,0,.7s-.4-.7,0-.7Z"/>
    <path d="M636.6,222c.4,0,.4.7,0,.7s-.4-.7,0-.7Z"/>
    <path d="M637.9,222c.4,0,.4.7,0,.7s-.4-.7,0-.7Z"/>
    <path d="M643.1,222c.4,0,.4.7,0,.7s-.4-.7,0-.7Z"/>
    <path d="M645,222c.4,0,.4.7,0,.7s-.4-.7,0-.7Z"/>
    <path d="M646.3,222c.4,0,.4.7,0,.7s-.4-.7,0-.7Z"/>
    <path d="M651.4,222c.4,0,.4.7,0,.7s-.4-.7,0-.7Z"/>
    <path d="M368,222.7c.4,0,.4.7,0,.7s-.4-.7,0-.7Z"/>
    <path d="M374.4,222.7c.4,0,.4.7,0,.7s-.4-.7,0-.7Z"/>
    <path d="M376.3,222.7c.4,0,.4.7,0,.7s-.4-.7,0-.7Z"/>
    <path d="M384.7,222.7c.4,0,.4.7,0,.7s-.4-.7,0-.7Z"/>
    <path d="M673.3,222.7c.4,0,.4.7,0,.7s-.4-.7,0-.7Z"/>
    <path d="M676.5,222.7c.4,0,.4.7,0,.7s-.4-.7,0-.7Z"/>
    <path d="M688.1,222.7c.4,0,.4.7,0,.7s-.4-.7,0-.7Z"/>
    <path d="M691.3,222.7c.4,0,.4.7,0,.7s-.4-.7,0-.7Z"/>
    <path d="M693.2,222.7c.4,0,.4.7,0,.7s-.4-.7,0-.7Z"/>
    <path d="M348,223.4c.4,0,.4.7,0,.7s-.4-.7,0-.7Z"/>
    <path d="M351.3,223.4c.4,0,.4.7,0,.7s-.4-.7,0-.7Z"/>
    <path d="M357.7,223.4c.4,0,.4.7,0,.7s-.4-.7,0-.7Z"/>
    <path d="M359.6,223.4c.4,0,.4.7,0,.7s-.4-.7,0-.7Z"/>
    <path d="M360.9,223.4c.4,0,.4.7,0,.7s-.4-.7,0-.7Z"/>
    <path d="M704.8,223.4c.4,0,.4.7,0,.7s-.4-.7,0-.7Z"/>
    <path d="M706.7,223.4c.4,0,.4.7,0,.7s-.4-.7,0-.7Z"/>
    <path d="M709.9,223.4c.4,0,.4.7,0,.7s-.4-.7,0-.7Z"/>
    <path d="M715.1,223.4c.4,0,.4.7,0,.7s-.4-.7,0-.7Z"/>
    <path d="M716.4,223.4c.4,0,.4.7,0,.7s-.4-.7,0-.7Z"/>
    <path d="M724.7,223.4c.4,0,.4.7,0,.7s-.4-.7,0-.7Z"/>
    <path d="M324.3,224c.4,0,.4.7,0,.7s-.4-.7,0-.7Z"/>
    <path d="M329.4,224c.4,0,.4.7,0,.7s-.4-.7,0-.7Z"/>
    <path d="M331.3,224c.4,0,.4.7,0,.7s-.4-.7,0-.7Z"/>
    <path d="M334.5,224c.4,0,.4.7,0,.7s-.4-.7,0-.7Z"/>
    <path d="M335.8,224c.4,0,.4.7,0,.7s-.4-.7,0-.7Z"/>
    <path d="M337.8,224c.4,0,.4.7,0,.7s-.4-.7,0-.7Z"/>
    <path d="M339.7,224c.4,0,.4.7,0,.7s-.4-.7,0-.7Z"/>
    <path d="M735,224c.4,0,.4.7,0,.7s-.4-.7,0-.7Z"/>
    <path d="M744.6,224c.4,0,.4.7,0,.7s-.4-.7,0-.7Z"/>
    <path d="M747.8,224c.4,0,.4.7,0,.7s-.4-.7,0-.7Z"/>
    <path d="M307.6,224.7c.4,0,.4.7,0,.7s-.4-.7,0-.7Z"/>
    <path d="M310.8,224.7c.4,0,.4.7,0,.7s-.4-.7,0-.7Z"/>
    <path d="M312.7,224.7c.4,0,.4.7,0,.7s-.4-.7,0-.7Z"/>
    <path d="M321.1,224.7c.4,0,.4.7,0,.7s-.4-.7,0-.7Z"/>
    <path d="M761.3,224.7c.4,0,.4.7,0,.7s-.4-.7,0-.7Z"/>
    <path d="M762.6,224.7c.4,0,.4.7,0,.7s-.4-.7,0-.7Z"/>
    <path d="M290.8,225.4c.4,0,.4.7,0,.7s-.4-.7,0-.7Z"/>
    <path d="M296,225.4c.4,0,.4.7,0,.7s-.4-.7,0-.7Z"/>
    <path d="M299.2,225.4c.4,0,.4.7,0,.7s-.4-.7,0-.7Z"/>
    <path d="M776.1,225.4c.4,0,.4.7,0,.7s-.4-.7,0-.7Z"/>
    <path d="M777.4,225.4c.4,0,.4.7,0,.7s-.4-.7,0-.7Z"/>
    <path d="M779.3,225.4c.4,0,.4.7,0,.7s-.4-.7,0-.7Z"/>
    <path d="M790.9,225.4c.4,0,.4.7,0,.7s-.4-.7,0-.7Z"/>
    <path d="M284.4,226.1c.4,0,.4.7,0,.7s-.4-.7,0-.7Z"/>
    <path d="M796.1,226.1c.4,0,.4.7,0,.7s-.4-.7,0-.7Z"/>
    <path d="M797.3,226.1c.4,0,.4.7,0,.7s-.4-.7,0-.7Z"/>
    <path d="M254.2,226.8c.4,0,.4.7,0,.7s-.4-.7,0-.7Z"/>
    <path d="M259.3,226.8c.4,0,.4.7,0,.7s-.4-.7,0-.7Z"/>
    <path d="M815.3,226.8c.4,0,.4.7,0,.7s-.4-.7,0-.7Z"/>
    <path d="M242.6,227.5c.4,0,.4.7,0,.7s-.4-.7,0-.7Z"/>
    <path d="M244.6,227.5c.4,0,.4.7,0,.7s-.4-.7,0-.7Z"/>
    <path d="M251,227.5c.4,0,.4.7,0,.7s-.4-.7,0-.7Z"/>
    <path d="M828.2,227.5c.4,0,.4.7,0,.7s-.4-.7,0-.7Z"/>
    <path d="M229.1,228.2c.4,0,.4.7,0,.7s-.4-.7,0-.7Z"/>
    <path d="M231.1,228.2c.4,0,.4.7,0,.7s-.4-.7,0-.7Z"/>
    <path d="M232.4,228.2c.4,0,.4.7,0,.7s-.4-.7,0-.7Z"/>
    <path d="M847.5,228.8c.4,0,.4.7,0,.7s-.4-.7,0-.7Z"/>
    <path d="M848.8,228.8c.4,0,.4.7,0,.7s-.4-.7,0-.7Z"/>
    <path d="M204.1,229.5c.4,0,.4.7,0,.7s-.4-.7,0-.7Z"/>
    <path d="M205.4,229.5c.4,0,.4.7,0,.7s-.4-.7,0-.7Z"/>
    <path d="M207.3,229.5c.4,0,.4.7,0,.7s-.4-.7,0-.7Z"/>
    <path d="M208.6,229.5c.4,0,.4.7,0,.7s-.4-.7,0-.7Z"/>
    <path d="M850.7,229.5c.4,0,.4.7,0,.7s-.4-.7,0-.7Z"/>
    <path d="M852,229.5c.4,0,.4.7,0,.7s-.4-.7,0-.7Z"/>
    <path d="M859.7,230.2c.4,0,.4.7,0,.7s-.4-.7,0-.7Z"/>
    <path d="M170,230.9c.4,0,.4.7,0,.7s-.4-.7,0-.7Z"/>
    <path d="M175.1,230.9c.4,0,.4.7,0,.7s-.4-.7,0-.7Z"/>
    <path d="M177.1,230.9c.4,0,.4.7,0,.7s-.4-.7,0-.7Z"/>
    <path d="M178.4,230.9c.4,0,.4.7,0,.7s-.4-.7,0-.7Z"/>
    <path d="M864.8,230.9c.4,0,.4.7,0,.7s-.4-.7,0-.7Z"/>
    <path d="M869.3,230.9c.4,0,.4.7,0,.7s-.4-.7,0-.7Z"/>
    <path d="M870.6,230.9c.4,0,.4.7,0,.7s-.4-.7,0-.7Z"/>
    <path d="M158.4,231.6c.4,0,.4.7,0,.7s-.4-.7,0-.7Z"/>
    <path d="M121.2,233.7c.4,0,.4.7,0,.7s-.4-.7,0-.7Z"/>
    <path d="M104.4,235c.4,0,.4.7,0,.7s-.4-.7,0-.7Z"/>
    <path d="M106.4,235c.4,0,.4.7,0,.7s-.4-.7,0-.7Z"/>
    <path d="M108.3,235c.4,0,.4.7,0,.7s-.4-.7,0-.7Z"/>
    <path d="M907.9,235c.4,0,.4.7,0,.7s-.4-.7,0-.7Z"/>
    <path d="M45.9,185.6c-1.9-.5-.7-3.5,1.6-2.7.4-1.1-.6-1.4-.6-1.7-.2-.9.3-2.7-1-3.1-.4-.1-1,.2-1.3,0-1.2-.6-2-1.8-3.5-1.4v-1.4h-3.2v-1l-1.6-1c-.9,1-1.1.6-.3,1.7.4.5,1.1,1.3,1.6,1.7.1.1.5-.1.6,0,.5.5,2.8,2.8,2.9,3.1.2.6.2,2.3-1,1.7-.7-.4-1.8-2.1-2.6-2.7-2.4-2.1-2.9-2.6-4.8-5.2-2.3-3-2.4-1.7-4.8-2.4-.3,0-3.6-2.7-3.9-2.7-.6-.2-1.5.1-2.2,0v-2.1h-2.6v-2.1c2.5-.3,4.5,1.1,7.1.7l-.6,1.4h3.9c-.6-2.3,1.9-2.6,1.9-4.8-1.2.7-2.8,1-2.6,2.7l-2.6-1c.6-.4,1.1-1.4,1.6-1.7,1.1-.6,1.3-1.1,2.6-2.1.6-.5,2.3-2.7,2.6-2.7.7.5,2.1,2.6,2.6,2.7.7.2,1.8-.2,2.6,0,.2,0,.4.6.6.7,1.9.4,3,.3,4.5.7,1.2.3,2.9-.2,4.2,0-.1-.6.4-1.8-.3-2.1-1.3-.5-2.7-1.1-3.9-2.1l-3.9-.7c-1.4-1.6-1.7-4-4.2-3.4.1-1.4-1.2-2.9-2.6-2.7v-2.1l-1.9-1c.8-1,2.2-1.7,1.9-3.1l-1.9-1,.6-2.4,2.2,1.4.6-.7.6.7.6-.7c.9,1.2,2,.9,2.9-.3l-1.9-1c-.3-1.9.4-1.1,1.3-1.7.6-.5.8-.9.6-1.7-1.4.3-2-.3-2.9-1.4-1,1.1-1.2,1.9-2.2.3l.6-2.4,3.9-1c-.9-.8-1.3-2-2.6-1.7v-2.1l-1.9.7.3-1.4-1.6-.7c.5-2.5,1.6-5.3,4.5-5.5v2.1h1.3v1.4c1.1-.3,1.2.5,1.6.7,2.3,1.2-.5-3.3-.3-3.4l3.2.7-1.3,3.4h1.3v1.4c1.3-.2,1.9,1.5,2.9,0,.8,1,3.4,1.5,2.9-.7-.9,0-1.4-.4-2.2-.7-.8-.3-1.9.3-2.2-1.4,1.5-.2,3.4.3,4.8,0,.2,0,.4-.7.6-.7.8,0,3,2,3.2,2.1,2,.6,7.6,1.7,9.6,1.4.3,0,2.4-.7,2.6-.7s.9,1.1,2.6.7l2.2-1.4h-5.5c-.8,1.3-1.1-.6-1.9.7l-.3-1.4-2.6.7.3-2.1,1-.3-3.5-2.4c-.6.9-2.9,1-3.9.7-1-.3-2-3.5-3.2-4.1-1.6.2-3.5-.6-4.5.7l-1.6-1c1.6-1.4,2.2-3.3,1.9-5.5l-2.6-2.1c1.1-1.7,3.2-.9,4.8-1,1.3-.9.4-2.6,2.2-2.1,0-.5.3-1.1-.3-1.4-1.2-.5-2.5-1.4-3.5-2.4,0-1-1-1.5-.6-2.7.3-1.3,2.3-.7,2.9-1.7,1.2.6,2.3-.6,2.6-.7,1.2-.3,3,.7,3.5-1.4-1.3-.1-2.9.2-4.2,0-6.9-1.1-15,1.1-21.9,2.1-2.4.3-4.6-.6-6.4,2.1l-2.9-.3,4.2-3.8,10-2.7c-.2-1.9,1.8-2.5,2.9-3.4h.3c-.2,1.5,1.5,3.2,2.9,2.7.4-.1,1-1.2,2.2-.7.1-.1-.2-.7,0-1,.9-1.7,4.3-3.8,5.1-5.5.1-.2,0-.7,0-1,1.4,1.6,2.3,1,3.5,1.4.4.1.9,1.3,1.3,1.4,2.4.7,5.5,1.1,7.7,0l2.6,1.4c3.6-1.4.4-3.4-2.2-2.7l-.6-2.7h-1.3l.6-3.4h-3.9v2.7h1.9l.6,2.7h-3.9l-1-2.1-1.3.7c-.4,0-2.1-3.8-3.2-4.1-1.4-.4-9.7-.2-11.6,0-.2,0-.4.7-.6.7-8.9,1.2-17.7,1.6-26.4,3.4-.3,0-1.3,1.2-2.6.7l-.3-1.4,1.3-.3v-1c.9-.3,2-.4,2.9-.7,1.2-.3,1.9-.4,3.2-.7,4.1-.9,8.7-2.3,12.9-2.7,13.8-1.5,27-4.1,41.1-5.5,1.6-.2,3.2.1,4.8,0,0-1.3-2-.5-2.9-.7-.2,0-.4-.7-.6-.7-2-.2-3.3-.3-5.1-.7-1.9-.4-4.9-.3-6.4-1.4-1-.7-.9-2-1.9-2.7h-4.2l-.6-3.4,2.2-1.4.6.7.6-.7.6.7,1.3-.7.6.7.6-.7,1.3.7.6-.7.6.7,1.3-1.4.6.7,1.3-.7,1,.7v-1.4h2.6l.3,1.4c.3-.2.4-.6.6-.7,1.4-.5,2.9-.2,4.5-.7,1.4-.4,1.4.2,1.9,0,.3,0,.4-.6.6-.7.8-.2,2.4.6,2.2-.7-2.4-.2-5,.3-7.4,0-6-.7-13.6.3-19.9,1.4-2.6.5-7,1.3-9.6,2.1-.7.2-1.4-.3-1.9.7l-2.2-.7c0-1.4,1-2.2.6-3.8,0-.2-.5-.4-.6-.7,0-.2,0-.5,0-.7-.9-1.7-3.4-1.6-3.2-3.8.9,0,2,.1,2.9,0,1.6-.3,4.2-1.1,5.8-1.4,2.3-.4,4.7,0,4.8,2.7l4.8-4.1h1.6l1-2.1,3.9,1.4,1.9,2.1c.8-.9,1.9-1.4,1.6-2.7,1.8-.1,3.7.2,5.5,0,1.9-.2,5.8-1.2,7.7-1.4,2.4-.2,5,.1,7.4,0v4.1l3.9.7-.6-3.8.6-1.7c1.1-.1,2.4.2,3.5,0,.2,0,.4-.7.6-.7,2-.2,4.1.1,6.1,0,.6.5-1.1,2.4-1.6,2.7-2.1,1.5-2-.2-2.9,3.1-.3,1.1-4.5,3.1.3,3.8l1.9-1.4,4.2.7c-.2-1.8.3-4.2,0-5.8,0-.3-1.8-2.5-1.3-3.1,1.1.5,2-.7,2.2-.7,3.2-.5,7.5.2,10.9,0,.2,0,.4-.7.6-.7,3.3-.2,6.7.1,10,0v6.9h2.2c2.5-1.9-.7-2.7-1-3.8-.2-.8.1-2.2,0-3.1.7,0,1.6.1,2.2,0,4.6-1,8.7-.5,13.5-.7,41.3-1.7,82.8-5.9,122.1-6.2,71.8-3.8,150.4-5.8,221.1-6.9l3.2,1.4c.3,0,.4-.6.6-.7,2-.7,3.5-.2,5.1-.7,78.3.6,168.8,2.1,253.2,3.4.2,0,.4.6.6.7,1.6.3,9-.4,9.3,0,0,1.6-.5,3.1,1,4.1l3.2-2.7,2.9.7v-2.1c2.4.1,5-.2,7.4,0,21.9,1.5,44.1,1.8,66.2,2.7,17.6.7,36.1,2.9,53.3,4.8,6.9.8,13.9.8,20.6,2.1,2.6.5,2.9-1,4.8-1.4v1.4c1.4-.6,3.2.6,3.5.7,2.8.3,6.4-.5,9,0,3.1.6,13.2,1.5,18,.7,2.1-.4,4-.4,6.4,0,3.4.5,4.3-1.9,7.1-1.4.2,0,.4.6.6.7,1.9.5,3.9.9,5.8,1.4,1.1.3,2-.1,2.9-.7v2.1l1.6.7,1.3-2.1,1.9.7,2.9-1.4v1.4c1.3,0,1.4,1,2.6,0l-.6,2.7h2.9l2.2,1.4c-1.3-.2-2.9.2-4.2,0-1.7-.3-4.4.5-6.4,0-.4,0-.9-1.6-1.9,0l-1.3-1.4-.6,1.4-1.3-1.4h-1.3l-1.3,1.4-.6-.7c-1.4.9-3.3,1.7-5.1,1.4-.2,0-.4-.6-.6-.7-1.2-.2-2.4.4-3.5-.7v2.1h-5.1c.3,1.3,1.1,1.5,2.2,1.4,1.2,0,1.6-1.6,2.9.3l-3.9,1c1.3.2,2.9-.2,4.2,0,1.4.2,3.8,1,5.8,1.4,5.3,1.1,10.9,1.3,16.1,2.7.9-1.1,1.5-1.6,2.9-1.4v1.4c1.3.7,2.7.4,4.2.7.2,0,.4.7.6.7,4.4.6,8.4-.1,11.6.7l.6-.7,1.3,1.4.3-1.4,1.3.3v1l1.6-1.4.3,1.4c1,.4,1.3-.6,1.6-.7.9-.3,1.5,1.6,2.6,0,1.5,1.2,1.2,3.3.3,4.8,1.5-.5,2.4.9,3.5,1.4,2.5,1.1,6.6,2.4,9,4.1,2.2,1.6,5.8,4.1,6.7,5.8.7,1.3,1.5.8,2.2,1,.9.3,1.6,2.4,2.2,3.1l-2.2,1c-.5-1-1.3-.5-1.9-.7-.5-.1-1.5-1.9-1.9-2.1-.4-.1-.9.1-1.3,0-.3,0-.4-.6-.6-.7-1.7-.3-3.7,0-3.5,2.1h-1l-.3-1.4-.6,1.4h-1.3v-1.4h-1.3v1.4l-1.6-1.4-.3,1.4c-.9-.1-2,.2-2.9,0-.4,0-.5-1.3-1.3,0h-20.2l1.6,1.4,1.3-.7c1.2,1.1,2.2,2.5,2.2,4.1,1.2-.5,2.1.7,2.2.7,1.8.3,4.2-.9,4.2,2.1-.2.2-2.6-.6-1.9,1,.6,1.4,2.2.6,2.9,1.7h1.6v1.4h2.2l2.6,1.4-1.6-3.8,1.3-2.4,1.3,3.8c1.5,1.4,1.5,2.3,2.9,3.1,1.2.7,2.7,4.2,4.5,4.8.4.1,1.1,0,1.6,0v2.1l2.6,1c.3,1.6-1.3,1.1-2.2,1-1,0-2,.3-2.6-.7l-1.9.7v-2.1l-.3,2.4c-.9.8-1.3,2-2.6,1.7l-.6,3.4,1-1.4c1.2,1.6,2.7-.8,3.9-.7.4-.4,2.3-1.3,2.6-1.4,1.2-.2,2.8-.2,3.5,1l-.6,2.4-2.2-2.1-1,2.1c-1.3,0-2.4-.3-3.2,1l3.2,2.4c-2.1.3-4.8-.4-6.7,0-.2,0-.7,1.1-1.9.7-.3,0-.4-.6-.6-.7-2-.4-4.7.3-6.7,0,0,1.4,1.9,1.3,1.9,1.4,0,0,0,1.7,1,2.1,1,.3,3-1.6,3.5.3.4,1.5-2.1,1.7-1.9,2.1.9.8,1.3,2,2.6,1.7-.1,1.9-1.9,2.4-1.3,4.8l1.9,1-1,.3-.3,1.4-6.1-.7c-.5,0-.4,1.4-.3,1.7.2.5,2.4,2.8,3.2,2.4l-.3,2.1,3.9-2.1,1,1v1.7h1.3l-.6,1,1,1h1.6v2.7c-1.2-.3-1.7.9-2.6,1.7l1.3,2.4-1.6-.7c-1,1.3-3,.4-4.5.7-.2,0-1.1,1.2-2.2.7v3.4c-1.5-.3-2.6.6-3.2,2.1,1.5-.4,2.2,1.2,2.9,0l1.3.7.6-.7c2.8,1.8,7.8,0,10.9.7.2,0,.4.6.6.7,1,.5,1.2-.5,1,2.1-2.9-.1-5.8.2-8.7,0-.2,0-.4-.7-.6-.7-5.5-.3-8.9,0-13.8,1.7-.8.3-.6-.3-1.3-.3v2.1c.7,0,1.6.1,2.2,0,.2,0,.4-.6.6-.7.9-.2,1.9.5,2.6-.7l.6,1.4-2.9,2.7c2,0,2.2-2.7,3.9-.3l2.6-.3c.5,2.4-1.7,1.1-2.9,1.4l-1.6,2.1,2.9.7c4.7-.6,11,.8,15.4,0,1.6-.3,1.5-1.7,2.6-2.7,1,.1,2.2-.2,3.2,0,.4,0,.5,1.3,1.3,0l1.6,1-2.9.3-1.6,2.1h9.3c.1,0,1,1.2,1.9.7l2.9,2.7c-1.4-.1-2.9.2-4.2,0-.2,0-.4-.7-.6-.7-3-.3-11.4-.5-14.1,0-.2,0-.4.6-.6.7-.8.2-2.5.4-3.2.7-.8.3-2.4,2-2.6,2.1-.9.3-1,.2-1.9.7-1,.5-2.2.6-2.9,1.7l.6,1.7c1.4,0,2.8,0,4.2,0,1,0,1.8.6,1,1.4h-6.4c-.2.2.7,1.2,1,1.4,1.4,1,1.8,0,1.9,0s.9,1.1,2.6.7c1.5-.4,3.3-.5,5.1,0,.3.1,2.6,1.9,3.9,2.1,1.1.2,5.4.2,6.4,0,1.8-.4,4.8-3.4,7.4-2.7l1-2.1,5.5-.7-1.6,2.1h-1v2.1h-1l-2.9,2.1c1.1.1,2.4-.2,3.5,0,.2,0,.4.7.6.7,1.9.2,4.9-.8,5.1-.7.4.1,1,1.2,2.2.7-.3-2,1.9-1.9,2.9-3.4h3.9c1.9.7,1.4,4,1.6,4.1.1.1,1.1-.1,1.6,0,3.1.9,6.1,1.3,9,2.7,1.8.8,4,1.3,3.5,4.1l-5.5-1.4c-1.3-.8-3.9-2.5-5.1-2.7-2.2-.4-5,1-6.4-1.4l-5.5,4.8,1.3-4.1c-1.6-.1-3.3.2-4.8,0-3.3-.4-6.1-.2-9.6-.7-.2,0-.4-.6-.6-.7-3.4-.7-3.5,1.8-4.5,2.1-.5.2-1.4-.1-1.9,0-12.7,3.2-24.8,7.6-37.9,8.9l-2.9,1c.8,1.4,1.7,1,2.9,1,2.6.1,8.9,0,10.9.7.4.1.9,1.3,1.3,1.4,1.2.3,3.2-.3,4.5,0,3,.7,14,1.4,18,.7.2,0,.4-.7.6-.7s.4.6.6.7c2.1.4,4.6-1.4,6.4-2.7l.3,1.4c.5,0,1.2.1,1.6,0,1.3-.4,1.9-2.7,5.1-2.1.4,0,1.5,1.7,2.6,0,1.2,1.1,2,2,1.6,3.8,0,.3-1,.6-.6,1.7,1.8.1,3.7-.2,5.5,0,.2,0,.4.7.6.7,3.9.5,7.1.6,10.9,2.1.3.1.4.6.6.7s.5,0,.6,0c.3.2,2.8,2.9,2.9,3.1.2.8-.1,2.2,0,3.1l-2.9,1.4c-2-1.6-5.9-.1-8.4-.7-.2,0-1.6-1.2-1.9-1.4-5.8-2.3-15.5.2-21.2-2.7l-3.2,2.1c-10.5,3.3-20.7,5.6-31.5,7.6-2.1.4-5,.8-7.7,1.4-.2,0-.4.7-.6.7-1.5.2-3.3-.2-4.8,0,0-1.4.3-2.5-1-3.4l-1.6,1,1.9,1.7c0,3.3-3.5,1.6-5.5,2.1-1.4.3-3.4.5-5.1.7-1.3.2-2.8-.1-4.2,0v-1l-1.3-2.4.6,3.4c-1.2-.5-2.1.7-2.2.7-2.9.5-12.8,1.5-15.4.7-.3,0-.9-1.1-1.3-1.4h-.6c-4.9,2.8-11,3.4-16.1,1.4-3.9,3.3-9.3.1-13.5.7-10.4,1.4-21.2.2-31.5-.7-2.7-.2-5.6.8-7.7-1.4h-.6c-8,2.4-21.9-1.4-30.2-2.1-46.9-4-94.3-9.2-142.7-8.9-38.2-1.7-77.2-5.1-115.1-6.9-102.4-11-211.8.4-311.7,4.8-35,1.8-70.5,4.4-105.4,6.2-3.3.2-6.7-.1-10,0,.3-1.1-.5-1.3-.6-1.7-.3-.9.2-2.7-1.9-2.4l-.6,4.8c-3.1.1-6.2-.2-9.3,0-.2,0-.4.7-.6.7-3.1.2-6.2-.1-9.3,0-.4-1.8,1.1-1.7,1.6-2.1.4-.3,1-1.3,1.3-1.4.5-.2,2.5-.1,3.2,0,.4,0,2.3,2.1,2.2-.3-1.4-2-4.2-.6-6.1-1-.4,0-1.8-1.6-2.6-1.4-.9,1.3-2.7,1.7-3.5,3.1-.4.8-.4,2-.6,2.7-.3,1.3-3.6,1.3-4.8,1-.2,0-.6-1.1-1.6-.7l.6-4.1h-2.2l-1.6,3.1,1.3.7-1,1c-1-.1-2.2.2-3.2,0-.4,0-2.2-.8-2.6-.7l-1.9,1.4c-.9-1.1-1.5-1.6-2.9-1.4v1.4c-1.5-.2-3.4.3-4.8,0-.2,0-.4-.7-.6-.7s-1.1,1.2-2.2.7c.3-1.7-.5-2.7-.6-4.1-1.6.1-3.3-.2-4.8,0-.2,0-.4.7-.6.7-1.5.2-3.2-.1-4.8,0,.6,2,3.8,1.8,4.8.7l3.5,2.4c-.7,1.1-1.8,1.3-2.9,1-.7-.2-1.6-1.2-3.2-.7-.5.2-2.4,3-3.9,2.7l-1.6-3.1.6-2.4h-5.5l-1-1v-3.1c1,.4,1.4-.6,1.6-.7,1.3-.2,3.1.2,4.5,0,.2,0,.4-.7.6-.7,1.7-.2,3.5,0,5.1,0,1,0,1.8-.6,1-1.4-2.9-.2-7.1.9-9-1.7-.6-.9-.8-1.2-.6-2.4h15.4v-2.1l2.9-.7c.3,0,.4.6.6.7,4.4.8,9.5-.9,13.5-1.4,11.6-1.3,23.4-.9,35.4-1.4,10.7-.4,19.5-1.6,30.2-2.1,34.9-1.4,70.8-3.2,106.1-5.5,11.5-.8,23.8-2.7,35.4-3.4,90-6,182.4-6.6,271.9-4.8.2,0,.4.6.6.7,5,.9,12.4-.9,17.4,0,.2,0,.4.6.6.7.3.2.9-.1,1,0,.1.1-.2.7,0,1,.6,1.2,2,2,3.2,1.7-.2-1.3.8-1.8,1.6-2.7,4.7.1,9.4-.2,14.1,0,11.7.4,24.3,1.7,36,2.1,21.4.7,40.5,1.2,61.7,2.1,5.2.2,13.1.6,17.4,1.4,4.2.7,9.6,0,13.5.7,2.1.4,6,0,8.4,0,.8,0,2.4.5,2.2-.7l-20.2-.7c-7.5-1.3-17.5-1-26.4-1.4-61.7-2.5-132.8-9.1-190.9-8.2-128.2-3-255.2,4.9-382.4,11.7-21,2-42.6,3-63.6,4.8-2,.2-4.1-.1-6.1,0l.6-4.8-2.2-.7c-.2,0-.4.6-.6.7-3,.9-6.5-.6-9.6,0-.2,0-.4.7-.6.7s-.6-1.1-1.6-.7v-2.1c-.9-.1-2,.2-2.9,0-1.8-.4-1.4-1.3-3.9-.7-1.6.4-2.4-.7-2.6-.7-2.5,0-9.1.5-10.9,0ZM368.9,41.2c1.5,0,2.9.5,3.9-1l-3.5-5.2-.3,6.2ZM323.3,41.2l.6-4.8-3.2,4.5,2.6.3ZM770.7,40.5v-2.7l-1.9.7c-.2,1.3.7,2.3,1.9,2.1ZM556.6,39.9h-1.3v.7h1.3v-.7ZM847.5,40.5c-.4,0-.4.7,0,.7s.4-.7,0-.7ZM778.4,43.3l-2.9-2.1c-1.9,1.1-2.6,1.5-2.2,4.1l5.1-2.1ZM852.9,42.6c-1.6.2-1.9-1.9-3.9-1.4.2,1.4,1.7,1.2,2.2,2.1.4.7.5,1.5,1.3,2.1l.3-2.7ZM233.3,43.3h-3.2c-.6,3.4,2.1,2.4,3.2,0ZM528.3,44.7c-3.8-.6-9.7.8-13.2,0-1.6-.4-3.2-.4-4.5-.7-10.9-1.9-26.4,2-37.3-.7-89.3,1.3-191.1,9.7-286,14.4-11.5.6-25.9.3-36,2.1-1.6.3-3.8-.2-5.5,0l.6-3.4h-1.9l.6,2.4c-.9,1.6-2.2.8-3.5,1-6.6,1.3-13.6,1-20.6,1.4-.2,0-.4.7-.6.7-10.5.6-20.7.7-30.9,2.1-2.9.4-3.7-.2-5.8-1.4-.5-.3-.6-1-1.6-.7v2.1l-1.6.7c-.8-1.3-.9,0-1.3,0-2.5.4-5.8-.3-8.4,0-.2,0-.4.6-.6.7-.9.1-3-.6-2.9.7,1.6.1,3.3-.2,4.8,0,1.3.1,2.9,1.1,5.1.7,3-.5,6.8,1.1,9.6,0,24,.9,55.3-.9,82.3-3.4,14.6-.9,28.8-1.5,43.1-2.7,4.1-.4,9.5-.9,12.2-1.4,4.9-.9,10.5-.5,15.4-1.4,5.2-.9,10.4-.5,15.4-1.4,2.1-.4,4.9.8,6.4-.7l3.5,1.4v-1.4c2.3.6,4.4-1.8,6.1,0,22-2.5,42.7-4.2,63.6-4.8,31-2.7,61.9-4.1,93.8-4.1s22.8.3,28.3-.7c6.6-1.2,11.7.7,17.4-.7.5-.1,8-.2,9,0,2.8.5,14.5.4,16.7,0,3.4-.6,7.2.5,10.3,0,.7-.1,10.3-.1,10.9,0,.4,0,.5,1.3,1.3,0l5.5-.7ZM615.4,43.3c-.4,0-.4.7,0,.7s.4-.7,0-.7ZM617.4,43.3c-.4,0-.4.7,0,.7s.4-.7,0-.7ZM884.4,52.9l.3-1.4c-.8,1.2-1.8,1.7-3.2,1.4-2.5-.6-6.5-1.2-9-1.4-21.8-1.5-43.8-2.5-65.6-4.1-46.3-1.8-94.6-3-140.1-4.1h-48.5l4.8.7.6.7c16.6.3,32.1,1.3,49.5,2.7,33.6.7,65.4,1.8,99.6,4.8,20.6.7,42.9,3.2,65.6,5.5,7.1-1.1,16.9,1.9,23.8.7,1.6-.3,2.2.6,3.5.7v1.4c.5.6,2.5-1.3,2.9-1.4,1.6-.4,11.7-.3,13.5,0,1,.2,2.6.5,3.9.7,1.9.3,11.5-.4,11.9,0l.3,2.7,1-2.7c2.5.3,5.7-.4,8,0,3.9.7,7.9,0,12.2.7,2.2.4,9.5.3,10.9,0,3.3-.6,7.8.5,10.3,0,.5,0,1.4,0,1.9,0,.5,0,1,1.4,1.6-.7-1.1-.1-2.4.2-3.5,0-5.1-.7-10.9-2.2-16.1-2.7-11.7-1.3-24.7-2.2-35.4-4.1-1.4-.3-3.3.2-4.8,0ZM221.7,44.7h-1.3v1.4h1.3v-1.4ZM529.3,44.7c-.4,0-.4.7,0,.7s.4-.7,0-.7ZM532.5,45.4c-.4,0-.4.7,0,.7s.4-.7,0-.7ZM536.7,45.4h-1.3v.7h1.3v-.7ZM875.4,47.4c-.3-1.4-1.4-1.5-2.6-1.4l1,2.1,1.6-.7ZM723.1,57h-13.2c-.8-1.1-2.1-.6-3.2-.7-9.7-.5-20.8.2-29.6-1.4-5.5-1-12.7.1-17.4-.7-4.9-.9-11.2.9-15.4-.7-106.6-3.8-209.9-3.9-313.7,2.1-7.1.4-13.9,1.6-21.2,2.1-5.5.4-12.5,1.4-17.4,1.4s-.5-1.3-1.3,0l-4.8.7c2.1-.3,4.8.4,6.7,0,.2,0,.4-.7.6-.7,90.4-4.2,180.3-11.2,266.7-4.1,43.6,2.2,92,.8,135.6,2.7,8.4-.1,16.7.2,25.1,0,.8,0,2.4.5,2.2-.7ZM945.8,53.6c-.4,0-.4.7,0,.7s.4-.7,0-.7ZM111.5,55.7c-.4,0-.4.7,0,.7s.4-.7,0-.7ZM726.6,57.7c-.4,0-.4.7,0,.7s.4-.7,0-.7ZM728.6,57.7c-.4,0-.4.7,0,.7s.4-.7,0-.7ZM730.8,57.7h-1.3v.7h1.3v-.7ZM731.8,57.7c-.4,0-.4.7,0,.7s.4-.7,0-.7ZM79.4,58.4c-.4,0-.4.7,0,.7s.4-.7,0-.7ZM285.4,59.1h-1.3v.7h1.3v-.7ZM946.8,68c-1,.1-1.7,0-2.6-.3-2.5-.9-5.7-3.7-8-1.7l-1.3-.7c-.7,1.2-1.4-.4-2.9,0-.2.9,0,2.5,1,2.7,2.1.7,1.2-1.1,2.6-2.1,1.6,1.1,3.9,1,4.8,3.4l-4.5-.7.3,1.4-2.2.3-2.6,1c1.1.1,1.7.6,2.9.7,6.6.8,13.4,2.3,19.9,2.7,5.5.4,11.2-.3,16.7,0l3.5,3.8c.4.7-.6,1.1-.6,1.4-.3,1.6.6,2.4.6,3.8,2.3.4,3.6-2,3.9-4.1l1.3-.7c-2.6.1-4.3-1.7-5.1-4.1,1.7.2,3.8-.3,5.5,0,2.3.4,4.1.4,5.8.7,2.5.4,5.9-.5,8.4,0,.3,0,.6,1.1,1.6.7-.3,2.6,1,3,3.2,2.7l-.6-2.4,1-1c.2,0,.4.6.6.7,2.5.4,5.7-.6,8,.3l1.9-.3c0-2.9-2.1-1.7-3.5-2.1-.9-.2-2.8-2.5-3.9-2.7-1.6-.5-3.5-.8-5.1-1.4-2.5-.9-5.2-2.1-7.7-2.7-.9-.2-1.8-.5-2.6-.7-4.4-1.1-9.2-.3-12.9-1.4-6.9-.2-17.6,1.3-25.1,0-1.1-.2-2.4.1-3.5,0l1.3,2.7ZM815,66.7h-1l-1,1,1,1h1v-2.1ZM626.4,81.1c-.4,0-.4.7,0,.7s.4-.7,0-.7ZM628.6,81.1h-1.3v.7h1.3v-.7ZM642.1,81.1h-12.9v.7h12.9v-.7ZM650.5,81.8h-2.6v.7h2.6v-.7ZM651.4,81.8c-.4,0-.4.7,0,.7s.4-.7,0-.7ZM935.9,83.8c.2-1.3-.7-2.3-1.9-2.1l1.9,2.1ZM97,84.5c-.8-.4-2.2,1.1-1.9,1.4.8.4,2.2-1.1,1.9-1.4ZM73.3,87.3c-1.6-.2-3.7.6-4.8-.7-.8,1.2-.7.3-1.3,0-1-.5-1.2.5-1,1.4l1.9.3,5.1-1ZM99.3,88.7c-.4,0-.4.7,0,.7s.4-.7,0-.7ZM946.8,98.3c-1.2,0-2.1,0-3.2-.3-.4-.1-6.1-.9-7.4-1-1.6-.2-3.2.1-4.8,0l1.6,1.4c1.7.1,3.5-.2,5.1,0,.2,0,.4.7.6.7,1.8.1,3.9,0,5.8,0,.8,0,2.4.5,2.2-.7ZM923.3,97.6c-.4,0-.4.7,0,.7s.4-.7,0-.7ZM948.4,98.3c-.4,0-.4.7,0,.7s.4-.7,0-.7ZM59.8,100.3l-1-1.4h-.6l-1,1v.3h2.6ZM56.6,99.6c-1.1.1-2.4-.2-3.5,0-.2,0-.4.6-.6.7-.9.3-1.2-1.4-2.2.3l2.9,1.7h1v-1.4h1l1.6-1.4ZM1003.7,100.3c-.4,0-.4.7,0,.7s.4-.7,0-.7ZM1001.1,101.7l-1,1,.3.3,1-1-.3-.3ZM60.1,102.4l-1,1,.3.3,1-1-.3-.3ZM1010.7,102.4c-.4,0-.4.7,0,.7s.4-.7,0-.7ZM57.5,103.1c-.4,0-.4.7,0,.7s.4-.7,0-.7ZM962.5,103.1c-.4,0-.4.7,0,.7s.4-.7,0-.7ZM984.4,103.1c-3.5-.6-8.3.5-11.9,0l2.2,1.4c3.1.5,6.1,0,9,1.4l1.6-.7v1.4l1.6.7,2.6-.7,1.9,1.4h4.2l-2.6,1.4,1,1.4c1.7.5,4.5-.8,5.8.7l1.6-1.4-3.5-1.4-1.6.7v-2.7l-8.7-2.7-1,.7v-1.4c-1-.4-1.5.7-1.6.7-.2,0-.4-.6-.6-.7ZM1003.3,103.8h-1.3v.7h1.3v-.7ZM1006.6,104.5h-2.6c-.8,4.2,3.6,1.1,2.6,0ZM62.3,107.2c-1.8-.1-3.7.2-5.5,0-.2,0-.4-.7-.6-.7-1.5-.2-3.3.1-4.8,0v3.4h1l.3,1.4c-1.4,0-2.8,0-4.2,0-1,0-1.9-.5-1.6,1l1,1.7c1.7-.1,3.5.2,5.1,0,2.6-.3,5.5-1.5,8.4-2.1.3,0,.6-1.1,1.6-.7l-.6-4.1ZM64.3,110.6l1.6.7,1-1-1.9-1.7-.6,2.1ZM979.6,110v-1.4h-.6v1.4h.6ZM69.1,110c-.4,0-.4.7,0,.7s.4-.7,0-.7ZM1004.6,110h-1.9v.7h1.9v-.7ZM63,116.8h-1.9v.3l1,1h1v-1.4ZM57.2,117.5h-1.3l1,1.4h.3v-1.4ZM344.2,117.5c-.4,0-.4.7,0,.7s.4-.7,0-.7ZM332.9,118.2h-1.3v.7h1.3v-.7ZM308.8,119.6c-.4,0-.4.7,0,.7s.4-.7,0-.7ZM300.5,120.3c-.4,0-.4.7,0,.7s.4-.7,0-.7ZM62,123c-.4,0-.4.7,0,.7s.4-.7,0-.7ZM195.1,123.7c-.4,0-.4.7,0,.7s.4-.7,0-.7ZM198.3,123.7c-.4,0-.4.7,0,.7s.4-.7,0-.7ZM178.7,125.8v-1.4c-.9.5-1.5.9-2.6.7v.7h2.6ZM180,125.8v-1.4h-.6v1.4h.6ZM181.9,125.8v-1.4h-.6v1.4h.6ZM183.8,124.4h-1.3v.7h1.3v-.7ZM184.8,124.4c-.4,0-.4.7,0,.7s.4-.7,0-.7ZM186.7,124.4c-.4,0-.4.7,0,.7s.4-.7,0-.7ZM188,124.4c-.4,0-.4.7,0,.7s.4-.7,0-.7ZM189.9,124.4c-.4,0-.4.7,0,.7s.4-.7,0-.7ZM167.1,126.5l-1.3-1.4v1.4h1.3ZM173.5,125.1c-1.6,0-3.2,0-4.8,0-1,0-1.8.5-1,1.4h2.2l.6-.7.6.7,2.2-1.4ZM175.5,125.1h-1.3v.7h1.3v-.7ZM154.9,127.1v-1.4h-.6v1.4h.6ZM165.2,125.8h-9.6c-.3,2.8,1.4.7,1.6.7s2.2,1.8,3.2,0l.6.7,1.3-.7.6.7,2.2-1.4ZM151.7,126.5c-2.3.3-5.2-.4-7.4,0-3.2.6-8.8,1-12.9,1.4-1.7.2-3.5,0-5.1,0-1,0-1.8.5-1,1.4,1-.5.7-.8,1.9-.3.3.1,5.3-.3,6.1-1l1.3.7.6-.7.6.7.6-.7,1.3.7.6-.7,1.9,1.4c1.2-2.2,3.2-.7,4.5-2.1l1.3.7.6-.7,1.3.7.6-.7.6.7c.8-1.2.7-.3,1.3,0,1,.5,1.2-.5,1-1.4ZM153.6,126.5h-1.3v.7h1.3v-.7ZM122.8,129.2v-1.4h-.6v1.4h.6ZM124.7,127.8h-1.3l1,1.4h.3v-1.4ZM978.3,129.2v-1.4h-.6v1.4h.6ZM49.2,128.5c-.4,0-.4.7,0,.7s.4-.7,0-.7ZM114.1,128.5c-.4,0-.4.7,0,.7s.4-.7,0-.7ZM116.3,128.5h-1.3v.7h1.3v-.7ZM117.3,128.5c-.4,0-.4.7,0,.7s.4-.7,0-.7ZM119.2,128.5c-.4,0-.4.7,0,.7s.4-.7,0-.7ZM120.5,128.5c-.4,0-.4.7,0,.7s.4-.7,0-.7ZM980.8,129.2h-1.3v.7h1.3v-.7ZM986.6,129.9l-1.6-.7-1.6,1c.8,1.3,1.8,1.1,3.2,1v-1.4ZM48.8,133.3l-2.9-1.4c-.4.3-1,1.3-1.3,1.4-.9.3-2.5-.8-2.2,1l3.5,2.4,3.5.7-.6-4.1ZM70.7,134.7l-1-2.1-.6.7c-1.5-1-2.6.7-4.2-.3l-3.2-.3,1.9,1.4v1.4l1.6-.7c.8,1.3.9,0,1.3,0,1.3-.2,2.9.2,4.2,0ZM54.6,133.3h-3.2c-.1,1.4-1,2.4-.6,4.1l2.9-.7,4.2,1.4-1.9-2.1,1.3-2.4-1.9.3-1.3,1.4.6-2.1ZM937.1,133.3h-1.9v.7h1.9v-.7ZM942.3,133.3h-3.9v.7h3.9v-.7ZM944.9,133.3h-1.3v.7h1.3v-.7ZM998.5,133.3c-.4,0-.4.7,0,.7s.4-.7,0-.7ZM72.3,134c-.4,0-.4.7,0,.7s.4-.7,0-.7ZM77.4,134c-.4,0-.4.7,0,.7s.4-.7,0-.7ZM998.5,134.7c-.4,0-.4.7,0,.7s.4-.7,0-.7ZM976.3,157.4l-1.3-1.7c-.4.8-.6-.3-1-.3-1-.2-2.2.4-2.9-.3l-2.6.3,2.2,2.1h5.5ZM979.6,157.4l-1-1.4-1,1v.3h1.9ZM991.1,166.3c.2-1.8-1.3-2.5-2.9-2.1-.3,0-.4.6-.6.7-.6.1-1.4-.2-1.9,0-.4.1-.9,1.3-1.3,1.4-1.8.5-3.2,1.7-4.5,2.1-1.8.5-2.9-1.7-4.2.3l2.2,1.7,3.2-.7c6.1,1.3,12.9-2.5,19.3-2.7l4.2-1.4c0-1.3-2-.5-2.9-.7-.2,0-.4-.7-.6-.7-2.8-.3-6.2,0-8.7.7v1.4h-1.3ZM99,169.1c.4-.9-1-2.4-1.3-2.1-.4.9,1,2.4,1.3,2.1ZM45.6,171.8c-.3-1.7-1.5-1.1-2.2-1.4-.9-.3-1-1.5-2.2.3l4.5,1ZM55.9,170.4h-1.3v.7h1.3v-.7ZM993.1,178l-1-6.2-2.2,1.7c-.3,1.1,1.5,1.6,1.3,2.7l1.9,1.7ZM996.6,175.9c-.4,0-.4.7,0,.7s.4-.7,0-.7ZM963.5,177.3h-1.9v4.8l3.2-1.7c-1.1-.9-1.5-1.6-1.3-3.1ZM1043.2,180.7l-1-2.1-2.2.7c-.5,2.5,2,.6,2.9,2.1l1.6-1-1.3.3ZM1006.6,182.8l-10.6-.7c-1.3,1.5-4.4-1.1-5.1-1.4-.8-.2-2,.1-2.9,0v1.4l-3.5-.7-1,2.1c1.2-.5,1.7,1.2,2.2,1.4.8.2,4.7.1,5.8,0,.2,0,.4-.6.6-.7.7-.1,1.5,0,2.2,0v2.1c1.2.5,1.9-.6,2.2-.7,2.6-.7,5.7-.8,8.4-1.4l1.6-1.4ZM388.9,189l-1-4.8-1,4.8h1.9ZM494.3,184.9c-1.6-.4-2.5.5-3.9.7v.3c1.4,2,3,.9,3.9-1ZM73.3,185.6c-1.2-.2-2.1.8-1.9,2.1,1.2.2,2.1-.8,1.9-2.1ZM964.1,191.7c.9.2,1.4-.3,1.9-1,1.1-1.4,2.1-3.1.3-4.5h-2.2l-.6,2.4.6,3.1ZM992.7,186.2c-.4,0-.4.7,0,.7s.4-.7,0-.7ZM345.2,187.6h-2.6v1.4c1.2.2,2.2,0,2.6-1.4ZM777.7,188.3c-1.2,0-2.4,0-3.5,0-.7,0-1.8-.5-1.6.7,1.2,0,2.4,0,3.5,0,.7,0,1.8.5,1.6-.7ZM941,188.3l-3.9.7c0,1-.2,3.1,1,3.4.4.1,1.4.3,1.6-.3l1.3-3.8ZM677.5,191.7l-2.6-.7,1,2.1,1.6-.7v-.7ZM615.4,192.4c-.4,0-.4.7,0,.7s.4-.7,0-.7ZM805.4,200.7c-2.2-.1-4.5.2-6.7,0-37.8-2.9-76-4.2-114.4-5.5-10.4-.4-21.7-1.7-32.1-2.1-6.7-.2-14.5.3-19.9-.7-4.6-.8-11,.6-15.7,0-.2,1.2,1.5.7,2.2.7,1.9,0,3.9-.1,5.8,0,.2,0,.4.7.6.7,3.6.2,7.9-.7,10.9.7,60,2,120.8,4.3,180,10.3,12.7,1.3,25.8,3.3,37.9,4.1,12,.8,24.1.9,36,2.1,9.4-.7,23.8.7,31.5-.7,4.3-.8,10.5.8,13.8-.3,1.1-.4,2.1-.4,3.2-.3,0-1.3-2-.5-2.9-.7-3.1-.5-6.5-.8-9.6-1.4-5-.9-12.8-2.3-18.6-2.7-2.4-.2-5,.1-7.4,0l1.6-1.4,1.6-.3c-1.4-.9-1-1.7-1.3-2.7-.3-1.1-2.5-2-3.5-2.4-.3-.1-.4-.6-.6-.7-.5-.1-2.7-.1-3.2,0-.5.2-2,2.6-2.6,2.7-1.2.4-2.5-1.5-3.5-.3l.6,2.4c1.4-.1,2.9.2,4.2,0,.2,0,.4-.7.6-.7,1.3-.2,2.8.1,4.2,0l.6,1.7c.5,1.8-2.4,1.9-3.5,1.7-7.2-1.4-15.5-.5-23.1-.7-15.4-.4-31.6-2.1-46.9-2.7-4.1-.2-9,.5-12.9,0-.2,0-.4-.6-.6-.7-.8-.2-2.4.6-2.2-.7l3.9-1.7c-.5-.3-1.2-1.6-1.6-1.7-.4-.1-.9.1-1.3,0-.4-.1-1.4-1.7-1.9-2.1-1.9,2-3.5,3-2.9,6.2ZM971.8,193.8h-1.3v.7h1.3v-.7ZM181.9,196.5h-1.3v.7h1.3v-.7ZM837.5,196.5h-1c-1.7.7-.3,3.1,1,1v-1ZM878,200.7c.2-1.3-.7-2.3-1.9-2.1l1.9,2.1ZM993.1,202.7c1.8.1,3.8,1.8,5.5,1.4.3,0,1.8-1.7,1.6-2.4l-2.2-3.1h-3.2c-1,1-1.8,2.5-1.6,4.1ZM120.2,204.8c-.8-2.3-3.5-1.1-5.1-1.4-.9.8,0,1.3,1,1.4,1.4,0,2.8,0,4.2,0ZM955.8,203.4c-1.3-.4-1.7.4-2.2.7-1.2.6-2.3.6-.6,2.1.6.2,1.7-1.1,3.2-.7,3.1.8,7.5,2.2,10.3,1.4.9-.3,3.8,1,4.5,2.1.9-1.3,2.6-.4,3.9-.7.7-.2,2.4-2,2.6-2.1.9-.3,2.5.2,3.5,0,0-1.4-2.1-.4-2.9-.7-.4-.1-.9-1.3-1.3-1.4-1.3-.4-1.7.7-1.9.7-3.3.6-9.3,1-12.9.7-.2,0-.4-.7-.6-.7-1.8-.2-3.7.1-5.5,0v-1.4ZM180.6,208.9v-1.4h-.6v1.4h.6ZM979.2,213c-.4,0-.4.7,0,.7s.4-.7,0-.7ZM880.6,216.5v-1.4h-.6v1.4h.6Z"/>
    <path d="M27,191.7c.3,3.8,4.2,2.6,7.1,2.7v1.4c.3.3,3.3-.3,4.2,0,.4.1.9,1.3,1.3,1.4,1.5.5,4.4,1.2,5.8,1.4,1.4.2,4.4-.6,4.8,1,.2.7-.2,1.8,1,2.4,1.3.6.8-1.7,1.9-2.1,2.3.2,4.8-.2,7.1,0,.2,0,.4.7.6.7,1.1.2,2.4-.1,3.5,0l-.6,4.1c-1.8-.1-3.7.2-5.5,0-.2,0-.4-.7-.6-.7-8.6-.8-15.6-1.9-23.8-3.4-.3,0-.6-1.1-1.6-.7v-2.1l-2.2,1.4c-.5-1-1.3-.5-1.9-.7-1-.3-3.8-2.5-5.8-2.1l-2.9-2.4,1.3-2.4c.7,0,1.6.1,2.2,0,.2,0,.4-.7.6-.7s.4.6.6.7c.9.2,2-.1,2.9,0Z"/>
    <path d="M32.1,62.5c-2,.9-2.9-1.2-3.5-1.4-.4-.1-.9.1-1.3,0-.5-.2-1.9-2.3-2.6-2.7h-.6c-1.8,1.5-3,4.5-5.5,4.1.3,1.8-1.2,1.8-2.2,2.7h-1.3c-.3,0-.4-.6-.6-.7-1.6-.4-3.5,1.3-5.5.7-.4-1.9.8-3.9,2.2-4.8.1,0,.4,0,.6,0,.3-.1.4-.6.6-.7,2.1-.5,4,.5,6.1.7-.8-1.6-1.6-2.9-1.3-4.8,1.1.5,2-.6,2.2-.7,2.5-.5,5.4-1.1,7.7-1.4,4.3-.6,5.6.4,4.8,5.2,0,.2-1,.7-.6,2.1,0,.4,1,.6.6,1.7Z"/>
    <path d="M76.5,208.2c.3,1.7-.5,2.7-.6,4.1-1.1.1-2.4-.2-3.5,0-3.8.5-9.1,1.2-12.9,1.4-2.2.1-9.4.5-10.9,0-1.1-.3-1.1-2.3-1-3.4,1.1.5,2-.7,2.2-.7,2.5-.4,5.7.2,8.4,0,2.4-.2,6.6-1.2,9-1.4,3.1-.2,6.2.1,9.3,0Z"/>
    <path d="M619.6,13.7c.2,1.2-1.5.7-2.2.7-1,0-2.3.2-3.2,0-.7-.1-1.8-.5-2.6-.7-4.5-1.1-10.3.2-15.4-.7-3.3-.6-8.8-.9-12.9-1.4-1.2-.1-2.6,0-3.9,0-1,0-1.8-.5-1-1.4,1.2,1.2,1.4-.3,2.2,0,3.8,1.2,6.8,0,10.3.7,5.3.9,11.6.5,16.7,1.4,2.7.5,5.5.3,9,.7,1.2.1,1.8.5,2.9.7Z"/>
    <path d="M536.1,8.2c.2.8,0,1.9-1,1.4-.6-.3-.4-1.2-1.3,0l-1.3-.7-.6.7-1.3-.7-.6.7c-2.3-1.6-6.2-.2-9-.7-3.9-.7-8.1.1-11.6-.7-2.5-.6-7.9.2-10.9,0-1,0-1.8-.5-1-1.4h2.2l.6.7.6-.7,1.3.7c4.7,0,14.4-1.1,20.6,0,2.1.4,4.8.3,7.1.7,1.2.2,5.8-.3,6.1,0Z"/>
    <path d="M1038.1,105.1c.1.1-.2.7,0,1,.8,1.5,1.2.8,1.9,3.4.1.5,3.9,2.8,4.5,4.1l.6,3.8c-.1.2-1.8-1.1-2.2-1.4-.4-.3-2-.8-2.2-1.7-.8-2.8-2.4-5.3-5.1-5.8,0-.6.1-1.3,0-1.7-.5-1.9-1-1.4-1.6-1.7-.7-.4-1.5-1.8-2.2-2.4l2.9.3c1,.5,1.9,1.7,2.6,2.1.3.2.8-.1,1,0Z"/>
    <path d="M77.1,205.5c-2.2-.3-5.4.5-7.4,0-.2,0-.4-.6-.6-.7-.2,0-.5,0-.6,0-1.5-.9-1.9-2.4-1.6-4.1,1.8.1,3.7-.2,5.5,0,.2,0,.4.6.6.7,3.2.5,4.6-1.1,4.2,4.1Z"/>
    <path d="M30.2,153.9c-.2,1.1.7,1.4.6,2.4,0,1.1-.9,1.3-.6,2.4l-2.2-.7c-.3.9-1.5.6-1.6.7-.1.1-.1,1.8-1.6,2.7-1.7,1.1-3.3.4-5.1.7-.2,0-.4.7-.6.7-1.1.2-2.4-.1-3.5,0v-2.1c.3-.3,4.4.3,5.5,0,.4-.1,1.3-1.6,1.9-2.1,1.3-.9,3.2-1.8,4.5-2.7.9-.7,1.5-2.3,2.9-2.1Z"/>
    <path d="M865.8,29.6c-.6,2.1-1.1.8-1.6.7-2.2-.3-4.8.2-7.1,0-4.8-.4-10.6-1.6-15.4-2.1-2.1-.2-5.7,1-6.7-1.4,2,.1,4.1-.2,6.1,0,7.1.6,14.6,1.4,21.9,2.1,1.2.1,1.8.6,2.9.7Z"/>
    <path d="M363.8,10.3c.9.8,0,1.3-1,1.4-1.8,0-4.1-.3-5.8,0-3.1.6-10.1,1.3-13.5.7-1.1-.2-7.7.6-10.3.7-1.2,0-1.8-.2-2.9.7l2.9-2.1,1.3.7.6-.7,1.3.7c1.7-1.5,4.8-.3,7.1-.7,4-.7,11.6-.6,16.1-1.4,1.3-.2,2.9.2,4.2,0Z"/>
    <path d="M1020.7,130.6l-.6,1,1.6-.3,5.5,2.7c.1,1.3,0,2-1,2.7l-4.5-4.1h-1.3c-.8,1-2.5,1-3.2,0l-1.9,1.4c-.9-1.8-4.6.3-4.8,0l.6-4.1c1.4-.6,2.8,1.2,3.5,1.4.6.1,2.5.1,3.2,0,1.3-.2.9,0,1.3,0s.6-1.1,1.6-.7Z"/>
    <path d="M577.8,11c.2,1.2-1.6.7-2.2.7-.6,0-1.3.1-1.9,0-2.1-.4-4.2-.2-7.1-.7-1.6-.3-3.4.4-5.1,0-2.5-.6-7.6-1.2-10.3-.7-1.2.2-2.6-.1-3.9,0l-2.2-1.4c2.9.4,6.6-.5,9.3,0,4,.7,9.8,0,14.1.7,1.7.3,3.9.4,6.4.7,1.2.1,1.8.6,2.9.7Z"/>
    <path d="M898.6,31.6c.1,1.2-1.5.7-2.2.7-7.6.2-13.1-1.2-21.9-.7l-2.2-1c.8-1.3,2.3-1.3,3.5-1,.2,0,.4.7.6.7,7.7,1,13-.7,19.9,1.4h2.2Z"/>
    <path d="M996.9,51.5h-1.3c0,.6-.1,1.3,0,1.7.1.5,2.3,1.7,1,3.1-.8-.6-3.3-2.2-3.5-3.1-.3-1,.1-1.9-1.3-2.7v-.7c.8-1.9,2.8-3.7,4.8-3.1.3,0,1.2,1.1,1,1.7-1,.7-.6,1.9-.6,3.1Z"/>
    <path d="M278.3,15.1c.3,1.9-.3,1.3-1.6,1.4-3.8.3-9.7,1.4-13.5.7-1.5-.3-3,.5-3.9.7-2.2.4-5.1-.3-7.4,0l2.2-1.4c2.8-.3,6.4.5,9,0,2.8-.5,7.9-1,11.6-.7l3.5-.7Z"/>
    <path d="M6.4,64.6h-1.9v2.7h3.9l-1.6,1.4c-1.5-.3-3.9.4-5.1,0-1.2-.4-2.1-2.7-1.3-4.1,1.3-2.2,3.1-.6,4.5-2.1h.6l1,2.1Z"/>
    <path d="M646.6,15.8c-2.9-.4-6.6.5-9.3,0-1.5-.3-2.8-.3-4.5-.7-1.6-.4-4.5,0-6.4,0-1,0-1.8-.6-1-1.4,2.1.3,4.7-.4,6.7,0,3.2.6,8,0,11.6.7.4,0,.3,1,1,.3.8-.9,1.7.1,1.9,1Z"/>
    <path d="M907.6,30.9c1.5-.2,3.4.3,4.8,0,2.2-.4,5.9.3,9,0,.2,0,.4-.7.6-.7,3.1-.4,5.9,1.1,8.4-.7h1.3l2.2,1.7-2.9,1.7-1.9-2.1-.6.7-.6-.7c-.5,1-1.3.5-1.9.7-.9.3-3.1.5-4.5.7-3.4.4-7.7-.5-10.3,0-1.2.2-3.1.3-3.5-1.4Z"/>
    <path d="M496.8,6.9c.2.8,0,1.9-1,1.4-.6-.3-.4-1.2-1.3,0l-1.3-.7-.6.7-1.3-.7-.6.7-1.3-.7c-5.4,1.1-9.9.4-14.1,0-.9,1.2-1.9,1.1-1.6-.7h23.1Z"/>
    <path d="M223,18.6l-2.2,1.4c-3,.4-6.8-.5-9.6,0-.3,0-1.6.6-1.9.7-2.2.4-5.1-.3-7.4,0l.3-1.4h9.6c1-1,1.9-.5,3.2-.7,2.4-.4,5.5.3,8,0Z"/>
    <path d="M661.7,17.2c-1.1-.3-1.8-.3-2.6-.7h-2.2l1.6-1.4c2.4,1.7,6.9,0,9.6.7,1.7.4,3.5.4,5.1.7,1.8.3,4.2-.2,6.1,0-.3,1.4-1.8,1.7-2.9,1.4-.4-.1-1.8-.7-1.9-.7-3.2,0-10.2.6-12.9,0Z"/>
    <path d="M707.7,17.9l-2.2,1.4-.6-.7-1.3.7c-3.8-1.6-9.2-.2-13.5-.7-.2,0-.4-.6-.6-.7-.9-.1-3,.6-2.9-.7,3.3.4,7.5-.6,10.6,0,2.3.4,4.9.3,7.1.7,1.1.2,2.4-.1,3.5,0Z"/>
    <polygon points="38.6 101 38.6 104.1 40.2 105.1 42.4 107.9 37.6 107.9 36.6 106.9 36.6 102.1 38.6 101"/>
    <path d="M434.2,7.6c.1,0,.2-.2.3-.3l2.6.3-1.6,1.4-.6-.7-1.3.7-.6-.7-.6.7-1.3-.7-.6.7-1.3-.7c-1.5,1.4-4.3.4-6.4.7l-1.6-1.4c4.4,0,8.8,0,13.2,0Z"/>
    <path d="M384.7,9.6c.2,0,.4-.6.6-.7.7-.2,1.7,1.2,2.9.7l-2.2,1.4-.6-.7-1.3.7-.6-.7-1.3.7-.6-.7c-.2,0-.4.6-.6.7-2.2.4-5.1-.3-7.4,0l1.6-1.4c2.8-.4,7.1.6,9.6,0Z"/>
    <path d="M325.9,13.1c.1,1.2-1.4.6-2.2.7-2.8.3-4.6.4-6.4.7-1.6.3-3.8-.2-5.5,0,.4-1.5,1.2-1.3,2.2-1.4,3.7-.3,6.7-.3,9.3-.3l2.6.3Z"/>
    <path d="M305.3,13.7l-1.6,1.4c-2.8-.3-6.4.5-8.4,0l-2.9.7c-.3-1.9.3-1.3,1.6-1.4,2.5,0,4-.3,5.8-.7,1.5-.4,3.8.3,5.5,0Z"/>
    <path d="M473.1,6.9c.2.8,0,1.9-1,1.4-.6-.3-.4-1.2-1.3,0l-1.3-.7-1.3.7-.6-.7-.6.7-.6-.7-1.3.7-.6-.7-1.3.7-.6-.7c-.9,1.2-1.9,1.1-1.6-.7h12.2Z"/>
    <path d="M1017.5,116.1l-2.2-.7-2.2,1.4v-1.4l-1.3-.7c1.4.2,2-1.3,2.9-2.1h1.3c.7.7,1.4.9.3,1.7l1.3,1.7Z"/>
    <path d="M407.5,8.2c.3,2.8-1.4.7-1.6.7-.7,0-4.4,1.8-5.1.7l-3.5.7c-.3-1.9.3-1.3,1.6-1.4,1.7-.1,3.9-1.1,5.1,0,.8-1.2,2.2-.6,3.5-.7Z"/>
    <path d="M250.7,17.2l-1.6,1.4-.6-.7c-.2,0-.4.6-.6.7-2.2.4-5.1-.3-7.4,0l1.6-1.4h8.7Z"/>
    <path d="M239.7,17.9c0,1.4-2,.5-2.9.7-1.6.4-2.5.5-3.9.7-1.3.2-2.9-.2-4.2,0l1.6-1.4c2.6.2,4.3,0,6.4-.7.7-.2,1.7,1.2,2.9.7Z"/>
    <path d="M1018.1,173.2c.2,1.1-1.7.8-2.2.7-1-.2-1.7-1-2.9-.7l1.3,2.1-5.1-1,3.2-.3v-1.4l5.8.7Z"/>
    <path d="M1035.5,159.4l3.9-3.1,2.6.7c-1.8,1.7-4,2.8-6.4,2.4Z"/>
    <polygon points="987.3 48.8 989.2 47.4 988.6 51.5 987.3 49.5 985.3 51.5 986 48.4 987 47.4 987.3 48.8"/>
    <path d="M822.7,25.4c-.6,2.1-1.1.8-1.6.7-1.9-.3-4.1.2-6.1,0-.9-.8,0-1.3,1-1.4,1.2,0,2.5-.3,3.2.7h3.5Z"/>
    <path d="M158.8,22c-.4,1.5-1.2,1.3-2.2,1.4-2.4.2-5-.1-7.4,0-.1-1.2,1.5-.7,2.2-.7,1,0,2.4.2,3.2,0,.5-.1.1-1,1.6-.3,1.4.6,1.3-.5,2.6-.3Z"/>
    <path d="M372.8,10.3l-2.2,1.4-1.3-.7-.6.7-.6-.7-.6.7h-2.2c-.8-.9,0-1.3,1-1.4,2.2-.1,4.5,0,6.7,0Z"/>
    <path d="M139.5,23.4l-2.2,1.4h-5.5l1.6-1.4.6.7,1.3-.7.6.7c.8-1.2,2.3-.6,3.5-.7Z"/>
    <path d="M543.1,8.9c.1,1.2-1.5.7-2.2.7-1.4,0-2.8,0-4.2,0,0-1.3-.3-1.4,1-1.4,1.4,0,1.8.7,1.9.7.2,0,.4-.6.6-.7,1.2-.4,1.8.9,2.9.7Z"/>
    <path d="M1022,147.8c.6.6-1.5,3.3-2.6,2.7l-1.3,1.4c.7-.9.5-1.9,1-2.7.7-1.1,1.6-1.6,2.9-1.4Z"/>
    <path d="M743,19.2c.2.8,0,1.9-1,1.4-.6-.3-.4-1.2-1.3,0l-1.3-.7-2.9.7c-.8-.9,0-1.3,1-1.4,1.8,0,3.7,0,5.5,0Z"/>
    <path d="M416.5,8.2c-.6,2.1-1.1.8-1.6.7-1.3-.2-3.1.3-3.9.7h-2.9l1.6-1.4h6.7Z"/>
    <path d="M452.5,6.9c.9.8,0,1.3-1,1.4-1.2,0-2.4,0-3.5,0-.9-.8,0-1.3,1-1.4,1.2,0,2.4,0,3.5,0Z"/>
    <path d="M50.8,119.6c0,.9.2,1.8-.6,2.4-1.2.8-1.3-.6-2.6-.3l3.2-2.1Z"/>
    <path d="M1013,128.5l-1-1.4-.6,1.4-2.9-1.7c.9-1.3,1.2-1.2,2.6-.7,1,.4,2.1.9,1.9,2.4Z"/>
    <path d="M654.3,16.5c-1.7-.3-4.4.9-5.1-1.4,1.7.3,4.4-.9,5.1,1.4Z"/>
    <path d="M445.4,6.9c.9.8,0,1.3-1,1.4-1.4,0-2.8,0-4.2,0l2.2-1.4h2.9Z"/>
    <path d="M782.9,22c.1,1.2-1.5.7-2.2.7-1.2,0-2.4,0-3.5,0,.2-.9,1.1-1.9,1.9-1,.6.7.5-.2,1-.3.7-.2,1.7,1.2,2.9.7Z"/>
    <polygon points="23.8 141.6 22.2 144.3 21.5 144.3 20.6 142.3 23.8 141.6"/>
    <path d="M991.8,47.4c-1.1,1.6,0,4.2-2.6,4.1-.2-.3.5-1.9.6-2.4.4-1.1.4-2,1.9-1.7Z"/>
    <path d="M730.8,19.9c-1.2,0-2.4,0-3.5,0-1,0-1.8-.6-1-1.4l4.5,1.4Z"/>
    <path d="M1003.3,54.3l-2.2-.7-1-2.1c.1-.2,3.2,1.7,3.2,2.7Z"/>
    <polygon points="288.6 15.1 286.3 15.8 282.8 15.8 286 14.8 288.6 15.1"/>
    <polygon points="19.3 101 19.3 103.1 16.7 103.1 16.7 101.7 19.3 101"/>
    <polygon points="716.7 18.6 712.2 19.2 713.8 17.9 716.7 18.6"/>
    <polygon points="1018.8 106.5 1020.1 108.2 1019.7 110.6 1018.8 108.9 1018.8 106.5"/>
    <path d="M12.2,116.8c.2,1.7-1,2.3-2.6,2.1l.6-2.1h1.9Z"/>
    <polygon points="999.5 58.4 999.5 60.5 999.2 60.5 996.9 57.7 999.5 58.4"/>
    <path d="M808.6,24.1v1.4c-1.2-.9-2.4-.7-3.9-.7v-.7h3.9Z"/>
    <polygon points="1025.2 129.9 1022.6 129.2 1022.6 128.5 1024.2 127.8 1025.2 129.9"/>
    <path d="M189,20.6v.7c-1.2-.5-2.1.7-2.2.7s-.6-1.1-1.6-.7v-.7h3.9Z"/>
    <polygon points="1023.3 145 1020.7 144.3 1020.7 143.6 1022.3 142.9 1023.3 145"/>
    <path d="M31.5,138.8l-1,1.4h-1v-2.1c.8.2,1,1,1.9.7Z"/>
    <polygon points="1007.8 135.4 1006.6 135.4 1007.2 132.6 1007.8 132.6 1007.8 135.4"/>
    <path d="M962.9,53.6v1.4c-1.1-.8-1.9-.8-3.2-.7v-.7h3.2Z"/>
    <path d="M788,22.7v.7h-2.6v-1.4c.9.5,1.5.9,2.6.7Z"/>
    <polygon points="955.8 55 953.9 55 953.9 53.6 954.8 53.6 955.8 55"/>
    <rect x="710.2" y="17.9" width="1.3" height="1.4"/>
    <rect x="899.9" y="30.9" width="2.6" height=".7"/>
    <rect x="458.9" y="6.9" width="1.3" height="1.4"/>
    <rect x="446.1" y="6.9" width="1.3" height="1.4"/>
    <polygon points="392.1 8.9 390.8 10.3 390.8 8.9 392.1 8.9"/>
    <polygon points="172.3 21.3 171 22.7 171 21.3 172.3 21.3"/>
    <rect x="142.7" y="23.4" width="1.9" height=".7"/>
    <rect x="824.7" y="26.1" width="1.9" height=".7"/>
    <polygon points="46.3 83.8 45 85.2 45 83.8 46.3 83.8"/>
    <rect x="388.9" y="9.6" width="1.3" height=".7"/>
    <rect x="289.2" y="14.4" width=".6" height="1.4"/>
    <rect x="183.2" y="20.6" width=".6" height="1.4"/>
    <rect x="189.6" y="20.6" width="1.3" height=".7"/>
    <rect x="759.7" y="20.6" width="1.3" height=".7"/>
    <rect x="167.8" y="21.3" width=".6" height="1.4"/>
    <rect x="140.1" y="23.4" width="1.3" height=".7"/>
    <rect x="11.6" y="66.7" width="1.3" height=".7"/>
    <rect x="25.7" y="102.4" width="1.3" height=".7"/>
    <rect x="1019.4" y="127.8" width=".6" height="1.4"/>
    <rect x="1009.1" y="142.3" width=".6" height="1.4"/>
    <rect x="1019.4" y="142.9" width=".6" height="1.4"/>
    <rect x="1007.2" y="158.8" width=".6" height="1.4"/>
    <rect x="1008.5" y="159.4" width="1.3" height=".7"/>
    <path d="M279.3,15.1c.4,0,.4.7,0,.7s-.4-.7,0-.7Z"/>
    <path d="M291.5,15.1c.4,0,.4.7,0,.7s-.4-.7,0-.7Z"/>
    <path d="M685.5,17.2c.4,0,.4.7,0,.7s-.4-.7,0-.7Z"/>
    <path d="M735.6,19.2c.4,0,.4.7,0,.7s-.4-.7,0-.7Z"/>
    <path d="M200.9,19.9c.4,0,.4.7,0,.7s-.4-.7,0-.7Z"/>
    <path d="M758.8,20.6c.4,0,.4.7,0,.7s-.4-.7,0-.7Z"/>
    <path d="M762,20.6c.4,0,.4.7,0,.7s-.4-.7,0-.7Z"/>
    <path d="M173.2,21.3c.4,0,.4.7,0,.7s-.4-.7,0-.7Z"/>
    <path d="M166.8,22c.4,0,.4.7,0,.7s-.4-.7,0-.7Z"/>
    <path d="M148.1,22.7c.4,0,.4.7,0,.7s-.4-.7,0-.7Z"/>
    <path d="M123.7,24.7c.4,0,.4.7,0,.7s-.4-.7,0-.7Z"/>
    <path d="M814.1,24.7c.4,0,.4.7,0,.7s-.4-.7,0-.7Z"/>
    <path d="M99.3,26.1c.4,0,.4.7,0,.7s-.4-.7,0-.7Z"/>
    <path d="M101.2,26.1c.4,0,.4.7,0,.7s-.4-.7,0-.7Z"/>
    <path d="M103.2,26.1c.4,0,.4.7,0,.7s-.4-.7,0-.7Z"/>
    <path d="M981.8,50.9c.4,0,.4.7,0,.7s-.4-.7,0-.7Z"/>
    <path d="M966.4,56.4c.4,0,.4.7,0,.7s-.4-.7,0-.7Z"/>
    <path d="M992.7,84.5c.4,0,.4.7,0,.7s-.4-.7,0-.7Z"/>
    <path d="M997.9,88.7c.4,0,.4.7,0,.7s-.4-.7,0-.7Z"/>
    <path d="M999.8,88.7c.4,0,.4.7,0,.7s-.4-.7,0-.7Z"/>
    <path d="M1001.1,88.7c.4,0,.4.7,0,.7s-.4-.7,0-.7Z"/>
    <path d="M1004.3,88.7c.4,0,.4.7,0,.7s-.4-.7,0-.7Z"/>
    <path d="M1006.2,88.7c.4,0,.4.7,0,.7s-.4-.7,0-.7Z"/>
    <path d="M1008.2,88.7c.4,0,.4.7,0,.7s-.4-.7,0-.7Z"/>
    <path d="M1015.2,89.3c.4,0,.4.7,0,.7s-.4-.7,0-.7Z"/>
    <path d="M1017.2,89.3c.4,0,.4.7,0,.7s-.4-.7,0-.7Z"/>
    <path d="M40.8,90.7c.4,0,.4.7,0,.7s-.4-.7,0-.7Z"/>
    <path d="M1019.7,113.4c.4,0,.4.7,0,.7s-.4-.7,0-.7Z"/>
    <path d="M1021.7,113.4c.4,0,.4.7,0,.7s-.4-.7,0-.7Z"/>
    <path d="M1022.9,113.4c.4,0,.4.7,0,.7s-.4-.7,0-.7Z"/>
    <path d="M1026.8,114.1c.4,0,.4.7,0,.7s-.4-.7,0-.7Z"/>
    <polygon points="1006.9 126.5 1007.8 127.5 1006.9 127.1 1005.9 127.5 1006.9 126.5"/>
    <path d="M1017.8,127.8c.4,0,.4.7,0,.7s-.4-.7,0-.7Z"/>
    <path d="M1008.8,136.1c.4,0,.4.7,0,.7s-.4-.7,0-.7Z"/>
    <path d="M1008.2,142.9c.4,0,.4.7,0,.7s-.4-.7,0-.7Z"/>
    <path d="M1011.4,142.9c.4,0,.4.7,0,.7s-.4-.7,0-.7Z"/>
    <path d="M1012.7,142.9c.4,0,.4.7,0,.7s-.4-.7,0-.7Z"/>
    <path d="M999.2,158.8c.4,0,.4.7,0,.7s-.4-.7,0-.7Z"/>
    <path d="M1002.4,158.8c.4,0,.4.7,0,.7s-.4-.7,0-.7Z"/>
    <path d="M1004.3,158.8c.4,0,.4.7,0,.7s-.4-.7,0-.7Z"/>
    <path d="M1011.4,172.5c.4,0,.4.7,0,.7s-.4-.7,0-.7Z"/>
    <path d="M1017.2,195.9c.4,0,.4.7,0,.7s-.4-.7,0-.7Z"/>
    <path d="M56.9,110c.4,0,.4.7,0,.7s-.4-.7,0-.7Z"/>
</svg>