<?xml version="1.0" encoding="UTF-8"?><svg id="Calque_1" xmlns="http://www.w3.org/2000/svg" viewBox="0 0 512 512"><path d="M465.7,85.7c.6,4.4,1.1,8.8,1.6,13.3.4,3.4-.3,5.8-1.8,6.6-1.3.7-2.6.9-4.5,1.6.7,1.8,1,3.2,1.5,3.8,1.5,1.6,3,2.8,4.7,4.4-2.2,5.2-1.9,13.5-6.2,14.3,1.6,2.6,2.4,4,3.7,6.1-1,1.8-1.9,3.2-2.9,5,.5,1.3,1.1,2.7,2,4.9-1.2,3.2-2.5,6.6-3.9,10.4-9.2,1.8-18.5,3.4-27.8,3.8-3.8.2-7.6.2-11.4.3-1,0-1.8.6-2.9,3.3,1.8.5,3,1.2,4.2,1.1,7.8-.2,15.6-.6,23.4-.7,1.7,0,3.4.2,5.1.8,4.4,1.7,8.9,3.7,13.3,5.6-.2,1-.2,2.2-.4,2.3-2.3,1.8-4.6,3.5-7.3,5.5.4,1.5.7,3.2,1.2,3.9,2.8,4,4.7,10.9,8.1,13.2.6.4,1,3.4,1,5.3,0,2.4-.9,3-1.8,3.9-2.9,2.7-5.7,5.5-8.7,7.7-.7.5-1.7.7-2.1,1.8-3.9,10.2-9.4,9.3-14.6,10.1-4.2.6-8.4.2-12.6.3-7,.1-14,.7-21.6,3.7.8,1.6,1.2,3.1,1.7,3.3,11.2,3.9,22.4,2.2,33.6,2.4,3.2,0,6.4-1.7,9.6-2.6,3.9-1.2,7.9-2.4,11.8-3.5.1,0,.3.5,1.1,2.1-.6.5-1,1.2-1.6,1.3-1.5.3-3.1,0-4.6.5-1.5.4-3.2.5-4.4,2.1-2.6,3.4-5.4,3.7-8.3,3.8-4.2.2-8.4,0-12.6.1-.9,0-1.9.6-2.7,1.4-.4.3-.6,1.8-.7,2.8,0,.5.4,1.6.7,1.7.9.5,1.9.9,2.8.9,6.9-.2,13.7-.4,20.6-.8,2.1-.1,4.2-.5,6.5,2,.2,5.3.8,10.7,2.9,15.6,7.6,2.6,15.7.2,23.4,7.5,0,1.1.1,2.3,0,3.4,0,1.2-.2,2.4-.4,3.6-.2.2-.3.7-.5.7-9.3.3-18.6.6-27.9,1.5,3.5,2.6,7,3.7,10.6,4.2,5.3.7,10.7,1.5,16,2.3,1.9.3,3.8.2,5.3,3.5.4.8,1,1.4,1.5,1.6,4.9,1.2,9.5,5.9,14.6,5.6,2.6-.2,5.2,1.5,7.8,3.5-1.7,0-3.4.4-5,0-5.8-1.5-11.4.9-17,3.6-3.9,1.9-4.7,4.6-4.5,14.1,0,.8,0,1.6,0,2.3-1.3,6.5-5.2,9.1-5.3,17.7,3.6,7.6,8.9.8,13.6,7.6-4.9.5-8.8.6-12.7.2-2.7-.3-5.3-.2-8-.1-2.5,0-5,.2-7.4.4-1.1.1-2.3.4-3.3,1-.4.2-.7,1.8-.8,2.9,0,.5.3,1.8.6,2,1,.9,2.1,2,3.2,2.1,4.8.6,9.5.9,14.3,1.5,1.1.1,2.2.6,3.5.9-.2,1.8-.4,2.9-.5,4-.3,3.9.1,6.4,1.5,6.9,3.8,1.3,7.2,5.4,10.8,7.9,2.6,1.8,5.7,1.2,8.5,1.7.7.1,1.4.4,2.6.7-1.5,3.7-3.1,2.7-4.4,3.6-1.4,1-2.7,2.8-4.2,4.4,0,2.5-.2,4.8-.3,7.6-6.4,1.2-13-3.8-19.5,1.4-.5,3.3-.9,6.9-1.4,10.4.6,1.1.9,2.2,1.4,2.5,1.6,1,3.3,1.9,5,2.4,3.4,1.1,6.7,1.2,9.9,5.3,1.5,2,3.7,1.3,5.6,1.9.6.2,1.2.7,2.3,1.3-3.1,3.1-3.1,3-7.9,2.8-2.5,0-5,.2-7.4.4-2.6.3-5.3-1.3-8.2,1.6.3,2.2.6,4.5.8,6.7.2,2.4.3,4.9.4,6.8,1.8,4.6,4.1,5.1,6.3,6.4,1.6,1,3.2,2.4,4.7,4.3.6.8.7,3.4,1.2,6.1-1.7.3-3,.7-4.3.6-19.1-1.1-38.1-2.2-57.2-3.2-3.6-.2-7.2.4-10.8.3-6.1,0-12.2.1-18.3-.5-9.7-.9-19.4-2.5-29.1-3.7-3-.4-6.1,0-9.1-.4-9.3-1.1-18.6-2.3-28-3.5-3.2-.4-6.4-2.2-9.7-.5-.7.4-1.4,1-2.8,2.2,1.4,1.1,1.9,1.8,2.6,2,11.9,3.9,23.8,6,35.9,7.1,8.2.8,16.4,2.3,24.5,3.2,13.7,1.5,27.4,2.9,41.1,4.3,8.2.9,16.3,1.9,24.7,2.9-.5.9-.7,1.8-1,1.7-3.5-.8-6.8,1.3-10,3.6-3.4,2.5-6.7,2.8-10.1,2.5-4.4-.4-8.8-.7-13.1-1-1.1,0-2.3,0-3.4.2-1.8.2-3.5,1.8-4.3,5.2-.5,2.3-.2,5.5-.3,8.8-4.2,1.6-8.5.4-12.9.1-10.3-.8-20.6-2.5-30.8-3.4-4.7-.4-9.5.2-14.3,0-4.8-.2-9.5-.3-14.3-1.2-11.2-2.2-22.5-1.9-33.7-2.4-13.9-.7-27.8-2-41.7-4.2-8.9-1.4-17.9-1.7-26.8-2.8-17.3-2.2-34.7-3.2-51.9-7.5-8.9-2.2-17.9-1.8-26.8-2.8-14.5-1.5-28.9-3-43.4-4.8-5.3-.7-10.6-2.7-15.7-6.8-1.4-1.1-3-1.5-4.5-1.7-9.5-1.4-19-2.8-28.5-4-8.6-1.1-17.1-1.7-25.7-3.3-6.4-1.2-12.8-3.5-19.3-5.5-1.3-.4-2.5-1.7-3.6-2.4-.9-7.4,1.9-8.5,3.8-11.5-.4-2.1-.7-3.9-1.1-5.7-1-4.5,0-8,1.2-11.4.1-.3.4-3.9.4-5.3h7.8c-.8-4.3-2.5-2.9-3.6-3.9-1.2-1-2.6-1.5-3.9-2.1-2.3-1-4.4-2.8-6.1-6.5-.4-.8-.6-2-.9-3.2.7-1.3,1.3-2.5,2.2-4.1-3-5-6.4-1.7-9.8-4,.3-1.7.4-3.2.8-4.4.8-2.4,3.1-1.4,2.9-6.3,1.1-.5,2.2-1.1,3.9-1.9-3.3-5.1-7.2-7.9-7.8-17.4,1-.4,2.6,0,3.3-1.5,1.7-3.9,3.8-3.5,5.2-1.3,3.5,5.4,6.4,3.2,9.5-1,.6-.9,1.4-1.3,2.5-2.4-1-1.7-1.7-3.1-2.7-4.8,1.7-1.5,3.2-2.8,5-4.3-5.3-3.6-10.7-3.6-15.2-9,0-3.3.9-3.2,1.6-3,6.6,1.6,13.2,3.2,19.8,5,4.7,1.3,9.4.9,14-2.3-5.2-3-10.6-3.1-15.9-5.4-5.4-2.4-10.7-5-16-7.5-.3-4.5.8-6.2,2.2-6,3.2.4,6.4,1.3,9.6,2.2,7.4,2.2,14.7,4.6,22.1,6.7,1.7.5,3.4,0,5.2-1.1-1.1-.7-2.1-1.8-3.2-2.1-8.5-2.1-17-3.9-25.6-6-2.1-.5-4.1-1.9-6.1-2.6-3.6-1.2-7.1-2.1-10.6-3.1-.3-2.5,0-3.6,1-3.4,7.2,1.1,14.3,3.3,21.5,5.2,10.2,2.7,20.4,5.6,30.7,5.3,4.7-.1,9.5,1.6,14.2,2.5,1.5.3,3,.3,4.6-.8-.8-.8-1.5-2.1-2.3-2.3-2.1-.5-4.2-.5-6.3-.6-11.1-.6-22-4.3-33-6.8-6.7-1.5-13-6-19.6-8.3-.9-.3-1.9-.8-2.7-1.8-2.6-3.4-5.4-3.7-8.2-3.2-.6,1.5-1,2.9-1.6,4,0,.1-.9-1.1-1.1-2-.4-1.8-.5-3.9-.9-6.5,1.4,0,2.6,0,3.8,0,1.3,0,2.7-.2,4-.2,1.2,0,2.6,2.2,3.6-1.3-3.3-7.6-7.9-8.5-12.5-11.6.7-1.6,1-2.7,1.3-2.9,1.1-.5,2.3-.4,2.3-4.1,0-1.3.7-2.7,1.2-3.9,1.4-3.6,1.1-6.7-.4-9.7-.2-.5-.3-1.5-.5-3.1.8-.8,1.5-1.6,2.1-2.1-.2-2.7-.5-5.3-.7-7.5,1.1-2.6,1.9-3.1,6.7-5,.4-2.4.9-5,1.5-7.8-1.1-3.2-2.1-6.2-3.3-9.6,1.9-3,3.7-6.2,2.8-11.9-.9-5.6-2.8-8.8-5.6-9.3-1.3-.2-2.6-.6-3.9-2.4,1.4-.2,2.7-.4,4.1-.7,1.3-.3,2.6-.6,3.9-1.4,2.3-1.4,3.5-4.6,3.5-10.1,0-2.8,0-5.8.2-8.5.3-3-.4-5-1.3-6.3-1.3-1.7-2.7-2.9-4.2-4.4,0-5.1,2-7.7,2.9-12.1,3.2-.3,6.2-.6,9.6-1,.5-1.5,1.1-3.5,2.1-6.3,2.8-1,5.9-2.1,9.1-3.2,0-.7-1.8-5.3-2.1-5.7,4.6-8.3,9.8-8.8,15.5-6.7,7.5,2.7,15.1,4.3,22.6,6.2,1.2.3,2.5.6,4-2.5-2.7-2.5-5.1-3-7.5-3.2-7.8-.6-15.5-3-23.2-5.9-3.3-1.3-5.9-4-8.4-8.2,1.4-.9,2.8-1.3,3.9-2.5,1-1,1.7-3,2.6-4.5,11.5,4.7,23,7.9,34.7,8.8,4.7.4,9.5-.7,14.2,0,15.4,2,30.8,3.7,46.3,5.1,9.5.9,19,1,28.5,1.4,0-3.6-1.1-3.8-2-3.9-5.3-.4-10.7-.8-16-1.1-2.7-.1-5.2-.4-7.9-2.4-2.3-1.7-4.9-1.2-7.3-1.8-1-.2-1.9-.7-1.9-3.6,2.1-4.5,4.8,0,7-2.1.4-1.9,0-3.5-.8-3.5-7.4.5-14.7-2-22.1-2.7-6.3-.6-12.6-.9-18.9-7.3-.4-1.6-1-4,.6-6.3.2-.2-.2-2.3-.4-3.5,2.4-2,5.1.8,8.6-2.1-2.6-1.3-4.3-2.9-5.9-2.7-7.9,1-15.5-4-23.3-4-1.7,0-3.5-.6-5-1.9-5.8-4.8-11.8-6.8-17.9-8-2.4-.5-4.8-1.6-7.2-3.2,2.7-1.6,5.4-1.7,8.1-1,6.2,1.6,12.5,3.2,18.7,4.3,6.5,1.2,12.9,1.7,19.4,2.7,4.9.7,9.9,2.1,14.8,2.6,11.6,1.2,23.2,2.8,34.8,2.1.8,0,1.5-.2,2.3,0,5.7,1.4,11.3,1.7,17,1.4,9.5-.5,19.1.7,28.6,1.2,17,1,33.9,2.2,50.9,3.1,21.4,1,42.7.8,64,2.9,15.2,1.5,30.5,1.4,45.7,3.7,2.2.3,4.5-.5,6.2,4.4.6,1.8,2.5,1.9,3.8,1.9,8,.4,16,.5,24,.8,3,0,6.1.4,9.1.2,4.2-.3,8.4-1.3,12.5-1.5,11-.6,22.1-.9,33.1-1.4,3.2-.2,6.5-.8,9.7-1.2,1.7-.2,3.4-.4,5.1-.1,4.8.7,5.3-.9,10.2,8.8ZM162.5,74.1c-1.1,0-2.2,0-3.4,0-4.4,0-8.8.4-13.1,0-11-1.2-22-2.9-33.1-4.3-1-.1-1.9.2-1.7,3.9,17.1.9,34.1,4.4,51.2.5ZM75,413.3c3.1,1,6.2,2,9.2,2.9.7.2,1.4-.2,3.1-.5-4.6-4.5-8.4-3.7-12.3-2.4ZM408.7,240.9c0-.4.1-.7.2-1.1h-9.4c0,.4,0,.7,0,1.1h9.2ZM171.9,75.9c0-.4,0-.8,0-1.2-.9,0-1.8.2-2.8.3,0,.3,0,.7,0,1h2.7ZM59.8,409.8c-.3.2-.6.5-1,.7.1.3.2.8.3.8.3,0,.7-.1,1-.2-.1-.4-.3-.9-.4-1.3ZM421,239.7v.8c.3,0,.6,0,.9,0,0-.3,0-.7,0-.7-.3,0-.6,0-.9,0ZM389.9,230.3h-.5c.1.3.3.5.4.8,0-.3,0-.5,0-.8ZM236.6,80v.6s.3-.2.3-.2l-.3-.4ZM413.6,162.7c-.1-.3-.2-.8-.3-.7-.3,0-.6.4-.8.6.1.3.2.8.3.7.3,0,.6-.4.8-.6ZM395.1,230.8c0-.3,0-.6,0-.7-.1-.2-.3-.1-.5-.2,0,.4,0,.8.1,1.2.1-.1.3-.2.4-.3ZM412.9,240.8l.4-.4-.4-.3v.7ZM416.3,240.5c.1,0,.3.3.4.3,0,0,0-.5.1-.7-.1,0-.3-.3-.4-.2,0,0,0,.4-.1.7ZM64,410.5l-.4-.3c0,.4,0,.9,0,1.3.1,0,.3,0,.4-.3,0,0,0-.5,0-.7ZM49.7,33.9c-.5-3.7-.9-6.8-1.3-10.4-2.2-1.7-4.4-3.5-7.3-5.8,3.2-2.3,5.6-.6,8-.7,1.3,0,2.7.4,3.2-3.5.1-.9,1.3-1.6,1.9-1.5,2.1.4,4.1,1.3,6.2,1.9,2.4.7,4.9,1.7,7.2-1,1.9-2.2,3.2-.9,4.7,2.7,1.3,2.9,1.3-2.2,1.8-3.4,2-2.8,4.7.8,7-4.3-6-3.1-11.7-2.6-17-6.1,3.9,0,7.8-.3,11.6,0,7.2.8,14.4,2.1,21.7,2.9,14.5,1.7,28.9,3.2,43.4,4.8,1.3.1,2.7.1,4-.3,4-1.4,7.8-2.5,11.9,0,2.1,1.3,4.6.8,6.8-.2,4.9-2.4,9.9-1.4,14.8-1.2,6.5.2,12.9,1.2,19.4,1.6,9.5.7,19,1.6,28.5,1.9,8.4.2,16.7,1,25.1,0,2.8-.4,5.7,0,8.6.3,5.7.7,11.4-.1,17.1-1.4,2.8-.6,5.6-.7,8.5.9,2.7,1.6,5.6,1.3,8.5,1.5,16.2,1.2,32.4,2.2,48.5,3.5,1.5.1,3.3.5,4.3,2.4,2.4,4.7,5,5.5,7.9,5.4.9,0,1.9.3,3,.4.3,1.5.9,2.9.9,4.4.2,6.9,1.5,10.8,4.9,10.7.9,0,1.8,1.3,2.6,2.1.7.7,1.4,2.2,2,2.1,5.4-.2,10.3,6.3,15.7,5.4,1-.2,2.4-.5,2.8,3.6-2.1,1.7-4.3.9-6.5.8-2.9,0-5.7,0-8.2,3.8-.7,1.1-1.8,1.5-2.7,1.7-2.1.5-3.9,2.1-5.9,3.6-3,2.3-6.3,2.5-9.5,2.5-21.2-.3-42.3-.8-63.5-1.4-10.6-.3-21.3-.9-31.9-1.2-8.2-.3-16.4-.2-24.6-.7-10.5-.6-20.9-1.8-31.4-2.6-4.9-.4-9.9-.4-14.8-.6-.8,0-1.6.2-2.3-.4-.8-.7-1.5-3.1-2.2-3.1-.8,0-1.5,2.6-2.3,2.9-1.5.6-3,.5-4.6.5-4,0-8-.2-12-.5-.7,0-1.8-.3-2.1-1.3-2.1-7.6-5.4-5.4-8-3.4-3.7,3-7.3,3-11.2,2-4.7-1.2-9.5-1.5-14.2-2.2-9.9-1.5-19.8-3.1-29.6-4.6-8-1.3-16-2.9-24-3.7-3-.3-5.9-4.1-9-1.7-2.3-3.5-5-3.6-7.6-4.9-3.1-1.6-6.3-2.9-9.3-4.3ZM188.4,54.7c4.6,0,9.3,4.2,14,0h-14ZM170,9.7c-.3-.3-.6-.9-.9-.9-.3,0-.5.7-.8,1.1.3.3.6.8.9.8.3,0,.5-.6.8-1ZM173.5,52.9c-.3-.1-.6-.3-.9-.4,0,0-.1.5-.2.8.3.1.6.3.9.4,0,0,.1-.5.2-.8ZM296.5,499.8c1-1.7,2-3.7,2.8-6,.2-.6-.3-3.2-.7-3.9-.6-.8-1.4-.8-2.2-.9-7.4-.9-14.8-1.6-22.3-2.6-24.7-3.2-49.5-6.2-74.2-9.7-9.9-1.4-19.7-3.5-29.6-5.5-10.2-2.1-20.5-4.5-30.7-6.6-11-2.2-22-4.3-33-6.1-13.9-2.3-27.7-4.5-41.6-6.6-7.8-1.2-15.6-2.4-23.4-3.3-6.7-.7-13.2-3.3-19.7-6.8-.9-.5-1.8-.8-2.8-1.2-1,1.7-1.8,3.7-2.8,4.5-1.1.9-2.4.8-3.6,1.1.2,5.1,0,7.2-.5,8.7-1.8,4.7-3.5,9.4-5.4,14.5.9,1.9,1.4,4,2.2,4.5,1.8,1.3,3.7,2.3,5.5,2.7,6.8,1.2,13.7,2.2,20.5,3.2,16.3,2.3,32.7,4.8,49,6.9,9.3,1.2,18.7,1.3,28,2.7,12,1.7,23.9,4.1,35.8,6.4,9.3,1.8,18.6,4.2,27.9,5.7,13.5,2.2,27,3.7,40.5,5.6,8.9,1.2,17.9,2.5,26.8,3.7,3.6.5,7.4,2,10.8.6,5.4-2.2,10.6-.7,15.9-.4,9.9.5,19.8.7,29.7,1,.8,0,1.5-.3,1.5-3-1.9-3.5-5.4.7-7-6.6.9-.9,1.7-1.5,2.4-2.6ZM87.6,70.2h-3.4c0,.1,0,.2,0,.4h3.3c0-.1,0-.2,0-.4ZM59,0c0,0-.2.4-.2.6.3.1.7.3,1,.3,0,0,.2-.4.2-.7-.3,0-.7-.2-1-.3ZM0,257.8c.2.3.4.6.7.8,0,0,.2-.4.3-.7-.2-.2-.3-.3-.5-.5-.2.1-.3.2-.5.4Z"/></svg>